<svg width="63" height="49" viewBox="0 0 63 49" fill="none" xmlns="http://www.w3.org/2000/svg">
<path d="M35.7778 2.72224C35.7778 2.72224 35.7778 1.62125e-05 38.5001 1.62125e-05C41.2223 1.62125e-05 41.2223 2.72224 41.2223 2.72224V5.44446C41.2223 5.44446 41.2223 8.16668 38.5001 8.16668C35.7778 8.16668 35.7778 5.44446 35.7778 5.44446V2.72224Z" fill="#FFAC33"/>
<path d="M60.2777 21.7778C60.2777 21.7778 62.9999 21.7778 62.9999 24.5C62.9999 27.2223 60.2777 27.2223 60.2777 27.2223H57.5555C57.5555 27.2223 54.8333 27.2223 54.8333 24.5C54.8333 21.7778 57.5555 21.7778 57.5555 21.7778H60.2777Z" fill="#FFAC33"/>
<path d="M19.4444 21.7778C19.4444 21.7778 22.1667 21.7778 22.1667 24.5C22.1667 27.2223 19.4444 27.2223 19.4444 27.2223H16.7222C16.7222 27.2223 14 27.2223 14 24.5C14 21.7778 16.7222 21.7778 16.7222 21.7778H19.4444Z" fill="#FFAC33"/>
<path d="M26.4148 9.92802C26.4148 9.92802 28.3394 11.8526 26.4148 13.7772C24.4901 15.7019 22.5655 13.7772 22.5655 13.7772L20.6396 11.8526C20.6396 11.8526 18.715 9.92802 20.6396 8.00205C22.5655 6.07744 24.4901 8.00205 24.4901 8.00205L26.4148 9.92802Z" fill="#FFAC33"/>
<path d="M54.9981 38.5099C54.9981 38.5099 56.9227 40.4345 54.9981 42.3591C53.0735 44.2837 51.1489 42.3591 51.1489 42.3591L49.2243 40.4345C49.2243 40.4345 47.2997 38.5099 49.2243 36.5853C51.1489 34.6607 53.0735 36.5853 53.0735 36.5853L54.9981 38.5099Z" fill="#FFAC33"/>
<path d="M54.4358 13.7758C54.4358 13.7758 52.5112 15.7004 50.5866 13.7758C48.662 11.8512 50.5866 9.92656 50.5866 9.92656L52.5112 8.00195C52.5112 8.00195 54.4358 6.07734 56.3604 8.00195C58.285 9.92656 56.3604 11.8512 56.3604 11.8512L54.4358 13.7758Z" fill="#FFAC33"/>
<path d="M25.8526 42.3591C25.8526 42.3591 23.9279 44.2837 22.0033 42.3591C20.0787 40.4345 22.0033 38.5099 22.0033 38.5099L23.9279 36.5853C23.9279 36.5853 25.8526 34.6607 27.7772 36.5853C29.7018 38.5099 27.7772 40.4345 27.7772 40.4345L25.8526 42.3591Z" fill="#FFAC33"/>
<path d="M35.7778 43.5556C35.7778 43.5556 35.7778 40.8333 38.5001 40.8333C41.2223 40.8333 41.2223 43.5556 41.2223 43.5556V46.2778C41.2223 46.2778 41.2223 49 38.5001 49C35.7778 49 35.7778 46.2778 35.7778 46.2778V43.5556Z" fill="#FFAC33"/>
<path d="M52.1111 24.5C52.1111 16.9826 46.0161 10.8889 38.5 10.8889C30.9826 10.8889 24.8889 16.9826 24.8889 24.5C24.8889 32.0161 30.9826 38.1111 38.5 38.1111C46.0161 38.1111 52.1111 32.0161 52.1111 24.5Z" fill="#FFAC33"/>
<path d="M38.3205 32.1364C38.2902 31.4446 38.1484 31.3302 38.1427 31.2864C37.5501 26.7348 36.2542 25.0418 33.3548 22.0316C30.2278 18.785 26.2011 17.9994 22.4103 18C18.6195 18.0006 14.9612 19.0379 12.0793 22.0316C9.19736 25.0253 7.28888 26.7396 6.69724 31.2913C6.60977 31.9742 6.55069 31.4463 6.52022 32.1364C4.00322 33.2416 2.86994 35.263 1.33198 37.9254C-0.205971 40.5877 0.0108237 43.7617 0.0101128 47.0149C0.0101128 47.5414 0.18216 48.0463 0.488407 48.4186C0.794653 48.7909 1.21001 49 1.64311 49H47.367C47.8001 49 48.2155 48.7909 48.5217 48.4186C48.828 48.0463 49 47.5414 49 47.0149C48.9993 43.7617 48.1737 40.5877 46.6358 37.9254C45.3417 35.0196 41.1724 32.1364 38.3205 32.1364Z" fill="#B2EBF2"/>
</svg>
