<svg width="49" height="49" viewBox="0 0 49 49" fill="none" xmlns="http://www.w3.org/2000/svg">
<path d="M21.7778 2.72222C21.7778 2.72222 21.7778 9.53674e-07 24.5001 9.53674e-07C27.2223 9.53674e-07 27.2223 2.72222 27.2223 2.72222V5.44445C27.2223 5.44445 27.2223 8.16667 24.5001 8.16667C21.7778 8.16667 21.7778 5.44445 21.7778 5.44445V2.72222Z" fill="#FFAC33"/>
<path d="M46.2777 21.7778C46.2777 21.7778 48.9999 21.7778 48.9999 24.5C48.9999 27.2222 46.2777 27.2222 46.2777 27.2222H43.5555C43.5555 27.2222 40.8333 27.2222 40.8333 24.5C40.8333 21.7778 43.5555 21.7778 43.5555 21.7778H46.2777Z" fill="#FFAC33"/>
<path d="M5.44444 21.7778C5.44444 21.7778 8.16667 21.7778 8.16667 24.5C8.16667 27.2222 5.44444 27.2222 5.44444 27.2222H2.72222C2.72222 27.2222 0 27.2222 0 24.5C0 21.7778 2.72222 21.7778 2.72222 21.7778H5.44444Z" fill="#FFAC33"/>
<path d="M12.4148 9.92801C12.4148 9.92801 14.3394 11.8526 12.4148 13.7772C10.4901 15.7018 8.56553 13.7772 8.56553 13.7772L6.63956 11.8526C6.63956 11.8526 4.71495 9.92801 6.63956 8.00203C8.56553 6.07742 10.4901 8.00203 10.4901 8.00203L12.4148 9.92801Z" fill="#FFAC33"/>
<path d="M40.9981 38.5099C40.9981 38.5099 42.9227 40.4345 40.9981 42.3591C39.0735 44.2837 37.1489 42.3591 37.1489 42.3591L35.2243 40.4345C35.2243 40.4345 33.2997 38.5099 35.2243 36.5853C37.1489 34.6607 39.0735 36.5853 39.0735 36.5853L40.9981 38.5099Z" fill="#FFAC33"/>
<path d="M40.4358 13.7758C40.4358 13.7758 38.5112 15.7004 36.5866 13.7758C34.662 11.8512 36.5866 9.92654 36.5866 9.92654L38.5112 8.00193C38.5112 8.00193 40.4358 6.07732 42.3604 8.00193C44.285 9.92654 42.3604 11.8512 42.3604 11.8512L40.4358 13.7758Z" fill="#FFAC33"/>
<path d="M11.8526 42.3591C11.8526 42.3591 9.92794 44.2837 8.00333 42.3591C6.07872 40.4345 8.00333 38.5099 8.00333 38.5099L9.92794 36.5853C9.92794 36.5853 11.8526 34.6607 13.7772 36.5853C15.7018 38.5099 13.7772 40.4345 13.7772 40.4345L11.8526 42.3591Z" fill="#FFAC33"/>
<path d="M21.7778 43.5556C21.7778 43.5556 21.7778 40.8333 24.5001 40.8333C27.2223 40.8333 27.2223 43.5556 27.2223 43.5556V46.2778C27.2223 46.2778 27.2223 49 24.5001 49C21.7778 49 21.7778 46.2778 21.7778 46.2778V43.5556Z" fill="#FFAC33"/>
<path d="M38.1111 24.5C38.1111 16.9826 32.0161 10.8889 24.5 10.8889C16.9826 10.8889 10.8889 16.9826 10.8889 24.5C10.8889 32.016 16.9826 38.1111 24.5 38.1111C32.0161 38.1111 38.1111 32.016 38.1111 24.5Z" fill="#FFAC33"/>
</svg>
