<svg width="56" height="32" viewBox="0 0 56 32" fill="none" xmlns="http://www.w3.org/2000/svg">
<path fill-rule="evenodd" clip-rule="evenodd" d="M48.7939 18.7817L48.8017 18.916C51.194 18.416 52.9278 20.6993 53.9358 22.1007C54.9438 23.502 55.4939 25.2249 55.5 27C55.5023 28.6364 55.0369 30.2336 54.1676 31.5732C54.0824 31.7051 53.969 31.8127 53.837 31.887C53.7051 31.9613 53.5585 32.0001 53.4097 32H30.1422H28.3422C28.3422 32 28.3422 32 28.3422 32H12.358C12.358 32 12.358 32 12.358 32H11.9612H1.92411C1.76317 32.0001 1.605 31.9547 1.46526 31.8684C1.32553 31.782 1.20907 31.6578 1.12741 31.5078C0.386052 30.141 -0.00322658 28.5845 2.01441e-05 27C0.00773059 25.3161 0.449176 23.6678 1.27486 22.2399C2.10054 20.8121 3.27782 19.6611 4.67469 18.916C4.64175 18.612 4.62517 18.3061 4.62502 18C4.62728 15.903 5.39013 13.8906 6.74975 12.3949C8.10936 10.8992 9.95731 10.0396 11.8967 10.0007C12.8227 7.1404 14.5321 4.65256 16.7977 2.86795C19.0632 1.08335 21.7776 0.0865235 24.5798 0.0100155C24.6783 0.00101549 24.8323 1.52588e-05 24.975 1.52588e-05C27.519 0.00544383 30.0129 0.764971 32.1854 2.19597C34.3579 3.62697 36.1258 5.67464 37.2967 8.11621C37.8114 8.03882 38.3304 8 38.85 8.00002C41.6742 8.00138 44.3919 9.16597 46.45 11.2568C48.4779 13.3169 48.6212 15.7946 48.7939 18.7817Z" fill="#D9D9D9"/>
</svg>
