<svg width="155" height="21" viewBox="0 0 155 21" fill="none" xmlns="http://www.w3.org/2000/svg">
<path d="M1.6678 13.1096C1.35847 13.1096 1.20381 12.955 1.20381 12.6456V6.61366C1.20381 6.30433 1.35847 6.14966 1.6678 6.14966H5.12459C5.43392 6.14966 5.58859 6.30433 5.58859 6.61366V9.67604H13.7782V5.45366H1.459C1.13421 5.45366 0.971806 5.29126 0.971806 4.96646V2.48407C0.971806 2.17474 1.13421 2.02008 1.459 2.02008H17.6757C18.0005 2.02008 18.1629 2.17474 18.1629 2.48407V12.6456C18.1629 12.955 18.0005 13.1096 17.6757 13.1096H1.6678ZM1.01821 20C0.693407 20 0.531008 19.8376 0.531008 19.5128V16.9144C0.531008 16.6051 0.693407 16.4504 1.01821 16.4504H7.44458V14.5248C7.44458 14.2155 7.59924 14.0608 7.90858 14.0608H11.4814C11.7907 14.0608 11.9454 14.2155 11.9454 14.5248V16.4504H18.3485C18.6733 16.4504 18.8357 16.6051 18.8357 16.9144V19.5128C18.8357 19.8376 18.6733 20 18.3485 20H1.01821ZM31.4604 16.7984V20.2088C31.4604 20.5181 31.3057 20.6728 30.9964 20.6728H27.4236C27.1143 20.6728 26.9596 20.5181 26.9596 20.2088V16.7984H20.5332C20.2084 16.7984 20.046 16.6283 20.046 16.288V13.8288C20.046 13.5195 20.2084 13.3648 20.5332 13.3648H37.8636C38.1884 13.3648 38.3508 13.5195 38.3508 13.8288V16.288C38.3508 16.6283 38.1884 16.7984 37.8636 16.7984H31.4604ZM25.2196 8.09845H37.2372C37.562 8.09845 37.7244 8.25312 37.7244 8.56245V11.1144C37.7244 11.4238 37.562 11.5784 37.2372 11.5784H21.206C21.0514 11.5784 20.9276 11.5398 20.8348 11.4624C20.742 11.3851 20.7034 11.2614 20.7188 11.0912L21.0668 6.54406C21.0978 6.23473 21.2602 6.08006 21.554 6.08006H24.8948C25.2351 6.08006 25.4052 6.24246 25.4052 6.56726L25.2196 8.09845ZM20.4868 2.36808C20.4868 2.05874 20.6492 1.90408 20.974 1.90408H37.1444C37.4692 1.90408 37.6316 2.05874 37.6316 2.36808V4.92006C37.6316 5.2294 37.4692 5.38406 37.1444 5.38406H20.974C20.6492 5.38406 20.4868 5.2294 20.4868 4.92006V2.36808ZM39.8163 19.6984C39.4915 19.6984 39.3291 19.5283 39.3291 19.188V16.4968C39.3291 16.1875 39.4915 16.0328 39.8163 16.0328H46.985C48.1296 16.0328 49.2431 15.9864 50.3258 15.8936C51.4085 15.8008 52.3829 15.5998 53.249 15.2904V2.02008C53.249 1.69528 53.4114 1.53288 53.7362 1.53288H57.0538C57.3786 1.53288 57.541 1.69528 57.541 2.02008V20C57.541 20.3093 57.3786 20.464 57.0538 20.464H53.7362C53.4114 20.464 53.249 20.3093 53.249 20V18.5616C52.4447 18.9173 51.4626 19.1957 50.3026 19.3968C49.1426 19.5979 47.8821 19.6984 46.521 19.6984H39.8163ZM43.8298 6.01046C44.1546 6.01046 44.317 6.17286 44.317 6.49766V8.12165C44.317 9.94671 44.7965 10.8592 45.7554 10.8592C46.7298 10.8592 47.217 9.94671 47.217 8.12165C47.217 7.54939 47.1474 7.08539 47.0082 6.72966C46.8845 6.35846 46.6912 6.07233 46.4282 5.87126C46.1808 5.65473 45.8792 5.5078 45.5234 5.43046C45.1677 5.33766 44.7656 5.29126 44.317 5.29126H40.0019C39.6771 5.29126 39.5147 5.1366 39.5147 4.82726V2.60007C39.5147 2.27528 39.6771 2.11288 40.0019 2.11288H44.201C45.361 2.11288 46.3896 2.22114 47.2866 2.43768C48.1992 2.63874 48.9647 2.97901 49.5834 3.45847C50.2175 3.92247 50.697 4.5334 51.0218 5.29126C51.3621 6.04913 51.5322 6.98486 51.5322 8.09845C51.5322 9.19658 51.393 10.1246 51.1146 10.8824C50.8517 11.6403 50.4727 12.2512 49.9778 12.7152C49.4829 13.1792 48.8797 13.5195 48.1682 13.736C47.4568 13.9371 46.6525 14.0376 45.7554 14.0376C44.8738 14.0376 44.0773 13.9371 43.3658 13.736C42.6544 13.5195 42.0434 13.1792 41.533 12.7152C41.0381 12.2512 40.6592 11.6403 40.3963 10.8824C40.1333 10.1246 40.0019 9.19658 40.0019 8.09845V6.49766C40.0019 6.17286 40.1565 6.01046 40.4659 6.01046H43.8298ZM77.6319 20.464C77.3071 20.464 77.1447 20.3093 77.1447 20V16.3112H74.9407C74.7551 17.0691 74.4922 17.7109 74.152 18.2368C73.8272 18.7472 73.425 19.1571 72.9456 19.4664C72.4661 19.7757 71.9248 20 71.3216 20.1392C70.7338 20.2784 70.0842 20.348 69.3728 20.348C68.4912 20.348 67.6946 20.2397 66.9832 20.0232C66.2717 19.8067 65.6608 19.4355 65.1504 18.9096C64.64 18.3837 64.2456 17.6877 63.9672 16.8216C63.7043 15.94 63.5728 14.8419 63.5728 13.5272V6.59046C63.5728 6.28113 63.7275 6.12646 64.0368 6.12646H67.4008C67.7256 6.12646 67.888 6.28113 67.888 6.59046V13.6896C67.888 14.8342 67.9962 15.6462 68.2128 16.1256C68.4293 16.6051 68.816 16.8448 69.3728 16.8448C69.945 16.8448 70.3394 16.6128 70.556 16.1488C70.788 15.6694 70.904 14.8496 70.904 13.6896V9.42085C70.904 8.75578 70.8576 8.17578 70.7648 7.68085C70.672 7.17046 70.5018 6.75286 70.2544 6.42806C70.0224 6.08779 69.6976 5.84033 69.28 5.68566C68.8778 5.51553 68.3674 5.43046 67.7488 5.43046H63.5728C63.248 5.43046 63.0856 5.2758 63.0856 4.96646V2.43768C63.0856 2.12834 63.248 1.97368 63.5728 1.97368H67.6328C69.365 1.97368 70.7802 2.22114 71.8784 2.71607C72.992 3.211 73.8194 3.99207 74.3608 5.05926H74.4304H77.1447V2.02008C77.1447 1.69528 77.3071 1.53288 77.6319 1.53288H80.9495C81.2743 1.53288 81.4367 1.69528 81.4367 2.02008V20C81.4367 20.3093 81.2743 20.464 80.9495 20.464H77.6319ZM75.2191 12.6456H77.1447V8.72485H75.1959C75.2114 8.86405 75.2191 9.00325 75.2191 9.14245C75.2191 9.28165 75.2191 9.42085 75.2191 9.56004V12.6456ZM90.0942 20.928C87.9753 20.928 86.3667 20.6187 85.2686 20C84.1859 19.3659 83.6446 18.4533 83.6446 17.2624C83.6446 16.056 84.1859 15.1435 85.2686 14.5248C86.3667 13.9062 87.9753 13.5968 90.0942 13.5968H94.827C96.9459 13.5968 98.5312 13.9062 99.5829 14.5248C100.635 15.1435 101.161 16.056 101.161 17.2624C101.161 18.4533 100.635 19.3659 99.5829 20C98.5312 20.6187 96.9459 20.928 94.827 20.928H90.0942ZM97.9126 13.04C97.6032 13.04 97.4486 12.8854 97.4486 12.576V8.28405H96.1958V12.112C96.1958 12.4214 96.0411 12.576 95.7318 12.576H93.0638C92.7544 12.576 92.5998 12.4214 92.5998 12.112V2.08968C92.5998 1.76488 92.7544 1.60248 93.0638 1.60248H95.7318C96.0411 1.60248 96.1958 1.76488 96.1958 2.08968V4.80406H97.4486V2.02008C97.4486 1.69528 97.6032 1.53288 97.9126 1.53288H100.604C100.913 1.53288 101.068 1.69528 101.068 2.02008V12.576C101.068 12.8854 100.913 13.04 100.604 13.04H97.9126ZM91.6486 9.42085C91.6486 9.97764 91.5326 10.4571 91.3006 10.8592C91.0841 11.2614 90.7825 11.5939 90.3958 11.8568C90.0091 12.1043 89.5529 12.2899 89.027 12.4136C88.5011 12.5219 87.9366 12.576 87.3334 12.576C86.7302 12.576 86.1657 12.5219 85.6398 12.4136C85.1294 12.2899 84.6731 12.1043 84.271 11.8568C83.8843 11.5939 83.575 11.2614 83.343 10.8592C83.1265 10.4571 83.0182 9.97764 83.0182 9.42085V9.16565C83.0182 8.60885 83.1265 8.13712 83.343 7.75045C83.575 7.34832 83.8843 7.02352 84.271 6.77606C84.6577 6.51312 85.1139 6.31979 85.6398 6.19606C86.1657 6.07233 86.7302 6.01046 87.3334 6.01046C87.9366 6.01046 88.4934 6.07233 89.0038 6.19606C89.5297 6.31979 89.9859 6.51312 90.3726 6.77606C90.7747 7.02352 91.0841 7.34832 91.3006 7.75045C91.5326 8.13712 91.6486 8.60885 91.6486 9.16565V9.42085ZM82.7398 2.87847C82.7398 2.56914 82.9022 2.41448 83.227 2.41448H85.4774V1.09208C85.4774 0.767282 85.6398 0.604883 85.9646 0.604883H88.7022C89.027 0.604883 89.1894 0.767282 89.1894 1.09208V2.41448H91.3006C91.6408 2.41448 91.811 2.56914 91.811 2.87847V4.82726C91.811 5.15206 91.6408 5.31446 91.3006 5.31446H83.227C82.9022 5.31446 82.7398 5.15206 82.7398 4.82726V2.87847ZM94.827 18.0744C95.4766 18.0744 95.9174 18.0125 96.1494 17.8888C96.3968 17.7651 96.5206 17.5563 96.5206 17.2624C96.5206 16.9685 96.3968 16.7597 96.1494 16.636C95.9174 16.5123 95.4766 16.4504 94.827 16.4504H90.0942C89.4446 16.4504 88.9806 16.5123 88.7022 16.636C88.4238 16.7443 88.2846 16.9531 88.2846 17.2624C88.2846 17.5872 88.4238 17.8037 88.7022 17.912C88.9806 18.0203 89.4446 18.0744 90.0942 18.0744H94.827ZM88.2614 9.28165C88.2614 8.98778 88.1841 8.74805 88.0294 8.56245C87.8747 8.37685 87.6427 8.28405 87.3334 8.28405C87.0241 8.28405 86.7921 8.37685 86.6374 8.56245C86.4827 8.74805 86.4054 8.99551 86.4054 9.30485C86.4054 9.61418 86.4827 9.86164 86.6374 10.0472C86.7921 10.2174 87.0241 10.3024 87.3334 10.3024C87.6427 10.3024 87.8747 10.2096 88.0294 10.024C88.1841 9.83844 88.2614 9.59098 88.2614 9.28165ZM107.587 17.216C107.262 17.216 107.1 17.0613 107.1 16.752V13.5504C107.1 13.2256 107.262 13.0632 107.587 13.0632H110.904C111.229 13.0632 111.392 13.2256 111.392 13.5504V16.752C111.392 17.0613 111.229 17.216 110.904 17.216H107.587ZM107.587 8.86405C107.262 8.86405 107.1 8.70938 107.1 8.40005V5.19846C107.1 4.87366 107.262 4.71127 107.587 4.71127H110.904C111.229 4.71127 111.392 4.87366 111.392 5.19846V8.40005C111.392 8.70938 111.229 8.86405 110.904 8.86405H107.587ZM118.374 13.1096C118.065 13.1096 117.91 12.955 117.91 12.6456V6.61366C117.91 6.30433 118.065 6.14966 118.374 6.14966H121.831C122.14 6.14966 122.295 6.30433 122.295 6.61366V9.67604H130.485V5.45366H118.166C117.841 5.45366 117.678 5.29126 117.678 4.96646V2.48407C117.678 2.17474 117.841 2.02008 118.166 2.02008H134.382C134.707 2.02008 134.87 2.17474 134.87 2.48407V12.6456C134.87 12.955 134.707 13.1096 134.382 13.1096H118.374ZM117.725 20C117.4 20 117.238 19.8376 117.238 19.5128V16.9144C117.238 16.6051 117.4 16.4504 117.725 16.4504H124.151V14.5248C124.151 14.2155 124.306 14.0608 124.615 14.0608H128.188C128.497 14.0608 128.652 14.2155 128.652 14.5248V16.4504H135.055C135.38 16.4504 135.542 16.6051 135.542 16.9144V19.5128C135.542 19.8376 135.38 20 135.055 20H117.725ZM143.875 20.928C141.756 20.928 140.148 20.6187 139.049 20C137.967 19.3659 137.425 18.4533 137.425 17.2624C137.425 16.056 137.967 15.1435 139.049 14.5248C140.148 13.9062 141.756 13.5968 143.875 13.5968H148.608C150.727 13.5968 152.312 13.9062 153.364 14.5248C154.415 15.1435 154.941 16.056 154.941 17.2624C154.941 18.4533 154.415 19.3659 153.364 20C152.312 20.6187 150.727 20.928 148.608 20.928H143.875ZM151.693 13.04C151.384 13.04 151.229 12.8854 151.229 12.576V8.28405H149.977V12.112C149.977 12.4214 149.822 12.576 149.513 12.576H146.845C146.535 12.576 146.381 12.4214 146.381 12.112V2.08968C146.381 1.76488 146.535 1.60248 146.845 1.60248H149.513C149.822 1.60248 149.977 1.76488 149.977 2.08968V4.80406H151.229V2.02008C151.229 1.69528 151.384 1.53288 151.693 1.53288H154.385C154.694 1.53288 154.849 1.69528 154.849 2.02008V12.576C154.849 12.8854 154.694 13.04 154.385 13.04H151.693ZM145.429 9.42085C145.429 9.97764 145.313 10.4571 145.081 10.8592C144.865 11.2614 144.563 11.5939 144.177 11.8568C143.79 12.1043 143.334 12.2899 142.808 12.4136C142.282 12.5219 141.717 12.576 141.114 12.576C140.511 12.576 139.946 12.5219 139.421 12.4136C138.91 12.2899 138.454 12.1043 138.052 11.8568C137.665 11.5939 137.356 11.2614 137.124 10.8592C136.907 10.4571 136.799 9.97764 136.799 9.42085V9.16565C136.799 8.60885 136.907 8.13712 137.124 7.75045C137.356 7.34832 137.665 7.02352 138.052 6.77606C138.438 6.51312 138.895 6.31979 139.421 6.19606C139.946 6.07233 140.511 6.01046 141.114 6.01046C141.717 6.01046 142.274 6.07233 142.785 6.19606C143.31 6.31979 143.767 6.51312 144.153 6.77606C144.555 7.02352 144.865 7.34832 145.081 7.75045C145.313 8.13712 145.429 8.60885 145.429 9.16565V9.42085ZM136.521 2.87847C136.521 2.56914 136.683 2.41448 137.008 2.41448H139.258V1.09208C139.258 0.767282 139.421 0.604883 139.745 0.604883H142.483C142.808 0.604883 142.97 0.767282 142.97 1.09208V2.41448H145.081C145.422 2.41448 145.592 2.56914 145.592 2.87847V4.82726C145.592 5.15206 145.422 5.31446 145.081 5.31446H137.008C136.683 5.31446 136.521 5.15206 136.521 4.82726V2.87847ZM148.608 18.0744C149.257 18.0744 149.698 18.0125 149.93 17.8888C150.178 17.7651 150.301 17.5563 150.301 17.2624C150.301 16.9685 150.178 16.7597 149.93 16.636C149.698 16.5123 149.257 16.4504 148.608 16.4504H143.875C143.225 16.4504 142.761 16.5123 142.483 16.636C142.205 16.7443 142.065 16.9531 142.065 17.2624C142.065 17.5872 142.205 17.8037 142.483 17.912C142.761 18.0203 143.225 18.0744 143.875 18.0744H148.608ZM142.042 9.28165C142.042 8.98778 141.965 8.74805 141.81 8.56245C141.656 8.37685 141.424 8.28405 141.114 8.28405C140.805 8.28405 140.573 8.37685 140.418 8.56245C140.264 8.74805 140.186 8.99551 140.186 9.30485C140.186 9.61418 140.264 9.86164 140.418 10.0472C140.573 10.2174 140.805 10.3024 141.114 10.3024C141.424 10.3024 141.656 10.2096 141.81 10.024C141.965 9.83844 142.042 9.59098 142.042 9.28165Z" fill="#292929"/>
</svg>
