<svg width="50" height="46" viewBox="0 0 50 46" fill="none" xmlns="http://www.w3.org/2000/svg">
<path d="M41.7543 15.1283C41.7252 14.5592 41.6682 13.9921 41.5837 13.4291C41.0152 9.68504 39.1834 6.27538 36.4179 3.81359C33.6524 1.3518 30.1348 -0.000507254 26.4979 -1.51245e-05C22.8611 0.000477005 19.3438 1.35374 16.579 3.81628C13.8141 6.27882 11.9831 9.68896 11.4155 13.4331C11.3316 13.9949 11.2749 14.5606 11.2457 15.1283C8.83091 16.0374 6.74367 17.7002 5.26818 19.8902C3.79269 22.0802 3.00068 24.691 3 27.3671C3 27.8001 3.16506 28.2155 3.45887 28.5217C3.75267 28.8279 4.15116 29 4.56667 29H48.4333C48.8488 29 49.2473 28.8279 49.5411 28.5217C49.8349 28.2155 50 27.8001 50 27.3671C49.9993 24.691 49.2073 22.0802 47.7318 19.8902C46.2563 17.7002 44.1691 16.0374 41.7543 15.1283Z" fill="#B2EBF2"/>
<circle cx="17" cy="35" r="2.5" fill="white" stroke="#B2EBF2"/>
<circle cx="33" cy="35" r="2.5" fill="white" stroke="#B2EBF2"/>
<circle cx="7" cy="42" r="2.5" fill="white" stroke="#B2EBF2"/>
<circle cx="23.8" cy="42" r="2.5" fill="white" stroke="#B2EBF2"/>
<path fill-rule="evenodd" clip-rule="evenodd" d="M39.5089 21.335L41.3904 19.5177C41.6115 19.304 41.6136 18.9597 41.3915 18.7452C41.171 18.5321 40.8132 18.5325 40.5918 18.7463L39.5089 19.7922V16.5472C39.5089 16.245 39.2583 16 38.9443 16C38.6324 16 38.3796 16.2417 38.3796 16.5472V19.8097L37.2787 18.7463C37.0575 18.5326 36.701 18.5307 36.4789 18.7452C36.2584 18.9582 36.2587 19.3038 36.4801 19.5177L38.3796 21.3525V29.6322L36.4739 31.473C36.2525 31.6869 36.2522 32.0325 36.4727 32.2456C36.6948 32.4601 37.0513 32.4581 37.2725 32.2444L38.3796 31.175V34.4528C38.3796 34.755 38.6302 35 38.9443 35C39.2561 35 39.5089 34.7583 39.5089 34.4528V31.1772L40.6138 32.2444C40.8352 32.4583 41.193 32.4586 41.4136 32.2456C41.6356 32.0311 41.6336 31.6867 41.4124 31.473L39.5089 29.6344V21.335Z" fill="white"/>
<path fill-rule="evenodd" clip-rule="evenodd" d="M35.1414 27.0561L32.6436 26.3292C32.35 26.2438 32.0531 26.4142 31.9794 26.7145C31.9062 27.0127 32.0847 27.3236 32.3786 27.4092L33.8161 27.8275L31.2677 29.4656C31.0081 29.6167 30.9224 29.9571 31.0788 30.2301C31.234 30.5012 31.5675 30.6002 31.8299 30.4474L34.3934 28.8006L34.028 30.2894C33.9546 30.5885 34.1304 30.8994 34.4252 30.9852C34.718 31.0704 35.0147 30.8973 35.0882 30.598L35.7186 28.0292L42.831 23.8894L45.361 24.6257C45.6549 24.7112 45.952 24.5386 46.0252 24.2404C46.0989 23.9401 45.9197 23.6312 45.6261 23.5457L44.1563 23.118L46.7329 21.4635C46.9925 21.3124 47.0781 20.9721 46.9218 20.699C46.7665 20.4279 46.433 20.329 46.1706 20.4817L43.5959 22.1351L43.9626 20.6409C44.0361 20.3416 43.8582 20.0303 43.5654 19.9451C43.2706 19.8593 42.9758 20.0333 42.9024 20.3324L42.2706 22.9065L35.1414 27.0561Z" fill="white"/>
<path fill-rule="evenodd" clip-rule="evenodd" d="M42.2965 28.0464L42.921 30.5907C42.9944 30.8897 43.2892 31.0637 43.584 30.9779C43.8767 30.8927 44.0546 30.5815 43.9812 30.2821L43.6218 28.8178L46.1702 30.4558C46.4298 30.6069 46.7651 30.5115 46.9214 30.2385C47.0767 29.9674 46.9949 29.6267 46.7325 29.474L44.169 27.8272L45.6306 27.4018C45.9242 27.3164 46.1034 27.0074 46.0297 26.7071C45.9565 26.4089 45.6594 26.2364 45.3655 26.3219L42.8438 27.0558L35.7314 22.9159L35.0989 20.3388C35.0254 20.0395 34.7286 19.8663 34.4359 19.9516C34.1411 20.0373 33.9653 20.3483 34.0387 20.6474L34.4061 22.1445L31.8295 20.4901C31.57 20.339 31.2347 20.4344 31.0784 20.7074C30.9231 20.9786 31.0049 21.3192 31.2673 21.4719L33.842 23.1253L32.3752 23.5522C32.0813 23.6377 31.9029 23.9487 31.9761 24.2469C32.0498 24.5472 32.3466 24.7176 32.6402 24.6321L35.1673 23.8967L42.2965 28.0464Z" fill="white"/>
<path fill-rule="evenodd" clip-rule="evenodd" d="M39.5089 21.335L41.3904 19.5177C41.6115 19.304 41.6136 18.9597 41.3915 18.7452C41.171 18.5321 40.8132 18.5325 40.5918 18.7463L39.5089 19.7922V16.5472C39.5089 16.245 39.2583 16 38.9443 16C38.6324 16 38.3796 16.2417 38.3796 16.5472V19.8097L37.2787 18.7463C37.0575 18.5326 36.701 18.5307 36.4789 18.7452C36.2584 18.9582 36.2587 19.3038 36.4801 19.5177L38.3796 21.3525V29.6322L36.4739 31.473C36.2525 31.6869 36.2522 32.0325 36.4727 32.2456C36.6948 32.4601 37.0513 32.4581 37.2725 32.2444L38.3796 31.175V34.4528C38.3796 34.755 38.6302 35 38.9443 35C39.2561 35 39.5089 34.7583 39.5089 34.4528V31.1772L40.6138 32.2444C40.8352 32.4583 41.193 32.4586 41.4136 32.2456C41.6356 32.0311 41.6336 31.6867 41.4124 31.473L39.5089 29.6344V21.335Z" stroke="#B2EBF2" stroke-width="0.5"/>
<path fill-rule="evenodd" clip-rule="evenodd" d="M35.1414 27.0561L32.6436 26.3292C32.35 26.2438 32.0531 26.4142 31.9794 26.7145C31.9062 27.0127 32.0847 27.3236 32.3786 27.4092L33.8161 27.8275L31.2677 29.4656C31.0081 29.6167 30.9224 29.9571 31.0788 30.2301C31.234 30.5012 31.5675 30.6002 31.8299 30.4474L34.3934 28.8006L34.028 30.2894C33.9546 30.5885 34.1304 30.8994 34.4252 30.9852C34.718 31.0704 35.0147 30.8973 35.0882 30.598L35.7186 28.0292L42.831 23.8894L45.361 24.6257C45.6549 24.7112 45.952 24.5386 46.0252 24.2404C46.0989 23.9401 45.9197 23.6312 45.6261 23.5457L44.1563 23.118L46.7329 21.4635C46.9925 21.3124 47.0781 20.9721 46.9218 20.699C46.7665 20.4279 46.433 20.329 46.1706 20.4817L43.5959 22.1351L43.9626 20.6409C44.0361 20.3416 43.8582 20.0303 43.5654 19.9451C43.2706 19.8593 42.9758 20.0333 42.9024 20.3324L42.2706 22.9065L35.1414 27.0561Z" stroke="#B2EBF2" stroke-width="0.5"/>
<path fill-rule="evenodd" clip-rule="evenodd" d="M42.2965 28.0464L42.921 30.5907C42.9944 30.8897 43.2892 31.0637 43.584 30.9779C43.8767 30.8927 44.0546 30.5815 43.9812 30.2821L43.6218 28.8178L46.1702 30.4558C46.4298 30.6069 46.7651 30.5115 46.9214 30.2385C47.0767 29.9674 46.9949 29.6267 46.7325 29.474L44.169 27.8272L45.6306 27.4018C45.9242 27.3164 46.1034 27.0074 46.0297 26.7071C45.9565 26.4089 45.6594 26.2364 45.3655 26.3219L42.8438 27.0558L35.7314 22.9159L35.0989 20.3388C35.0254 20.0395 34.7286 19.8663 34.4359 19.9516C34.1411 20.0373 33.9653 20.3483 34.0387 20.6474L34.4061 22.1445L31.8295 20.4901C31.57 20.339 31.2347 20.4344 31.0784 20.7074C30.9231 20.9786 31.0049 21.3192 31.2673 21.4719L33.842 23.1253L32.3752 23.5522C32.0813 23.6377 31.9029 23.9487 31.9761 24.2469C32.0498 24.5472 32.3466 24.7176 32.6402 24.6321L35.1673 23.8967L42.2965 28.0464Z" stroke="#B2EBF2" stroke-width="0.5"/>
</svg>
