<svg width="376" height="270" viewBox="0 0 376 270" fill="none" xmlns="http://www.w3.org/2000/svg">
<g filter="url(#filter0_d_2103_30911)">
<rect x="10.8389" y="10.8831" width="355" height="249" rx="10" fill="#F1F1F1"/>
<g opacity="0.54">
<path d="M223.497 194.632C223.497 200.921 222.438 205.128 220.898 207.99C219.412 210.751 217.304 212.588 214.495 213.886C211.568 215.237 207.838 216.016 203.219 216.42C198.604 216.823 193.475 216.826 187.792 216.826C182.11 216.826 176.981 216.823 172.366 216.42C167.746 216.016 164.016 215.237 161.09 213.886C158.281 212.588 156.173 210.751 154.687 207.99C153.146 205.128 152.088 200.921 152.088 194.632C152.088 180.062 167.613 163.94 187.792 163.94C207.971 163.94 223.497 180.062 223.497 194.632Z" fill="white" stroke="#5A7BBD" stroke-width="10.1137"/>
<path d="M234.839 194.632C234.839 199.487 228.534 204.595 225.27 204.595C222.006 204.595 223.018 199.487 223.018 194.632C223.018 189.777 222.006 184.083 225.27 184.083C228.534 184.083 234.839 189.777 234.839 194.632Z" fill="#5A7BBD"/>
<path d="M140.839 194.632C140.839 189.777 147.144 184.669 150.408 184.669C153.672 184.669 152.659 189.777 152.659 194.632C152.659 199.487 153.672 205.181 150.408 205.181C147.144 205.181 140.839 199.487 140.839 194.632Z" fill="#5A7BBD"/>
<ellipse cx="4.51565" cy="2.92262" rx="4.51565" ry="2.92262" transform="matrix(0.963219 -0.268719 0.249233 0.968444 161.665 201.161)" fill="#E96C58"/>
<ellipse cx="4.51565" cy="2.92262" rx="4.51565" ry="2.92262" transform="matrix(-0.963219 -0.268719 -0.249233 0.968444 211.785 201.747)" fill="#E96C58"/>
<path d="M169.619 185.841L180.032 191.409" stroke="black" stroke-width="1.89632" stroke-linecap="round"/>
<path d="M168.983 194.471L179.924 191.419" stroke="black" stroke-width="1.89632" stroke-linecap="round"/>
<path d="M206.469 185.841L196.056 191.409" stroke="black" stroke-width="1.89632" stroke-linecap="round"/>
<path d="M207.105 194.471L196.164 191.419" stroke="black" stroke-width="1.89632" stroke-linecap="round"/>
<path d="M190.92 199.906L193.749 204.008" stroke="black" stroke-width="1.89632" stroke-linecap="round"/>
<path d="M196.939 199.906L194.312 204.595" stroke="black" stroke-width="1.89632" stroke-linecap="round"/>
<path d="M184.743 199.985L187.572 204.088" stroke="black" stroke-width="1.89632" stroke-linecap="round"/>
<path d="M190.762 199.986L188.135 204.674" stroke="black" stroke-width="1.89632" stroke-linecap="round"/>
<path d="M178.552 199.985L181.381 204.088" stroke="black" stroke-width="1.89632" stroke-linecap="round"/>
<path d="M184.571 199.986L181.943 204.674" stroke="black" stroke-width="1.89632" stroke-linecap="round"/>
<path d="M201.067 165.329C201.067 168.89 195.522 170.604 188.683 170.604C181.844 170.604 174.612 168.89 174.612 165.329C177.707 164.157 181.366 162.985 188.683 162.985C195.522 162.985 200.222 165.329 201.067 165.329Z" fill="#171717"/>
</g>
<path d="M82.1436 128.391H62.7842V126.258H71.1279V121.641H64.917V111.422H79.917V121.641H73.7061V126.258H82.1436V128.391ZM67.4717 119.602H77.3389V113.508H67.4717V119.602ZM101.644 123.094H99.1592V117.328H97.0967V122.391H94.6592V110.203H97.0967V115.219H99.1592V109.781H101.644V123.094ZM93.9561 114.117H83.4092V112.078H87.417V109.969H89.9951V112.078H93.9561V114.117ZM88.7061 114.985C89.5967 114.985 90.3896 115.137 91.085 115.442C91.7803 115.746 92.3232 116.176 92.7139 116.731C93.1123 117.278 93.3154 117.914 93.3232 118.641C93.3154 119.367 93.1123 120.008 92.7139 120.563C92.3232 121.11 91.7803 121.535 91.085 121.84C90.3896 122.145 89.5967 122.297 88.7061 122.297C87.8311 122.297 87.0459 122.145 86.3506 121.84C85.6553 121.535 85.1123 121.106 84.7217 120.551C84.3389 119.996 84.1514 119.36 84.1592 118.641C84.1514 117.922 84.3389 117.285 84.7217 116.731C85.1123 116.176 85.6553 115.746 86.3506 115.442C87.0459 115.137 87.8311 114.985 88.7061 114.985ZM88.7061 116.86C88.042 116.86 87.5029 117.02 87.0889 117.34C86.6826 117.66 86.4795 118.094 86.4795 118.641C86.4795 119.188 86.6826 119.621 87.0889 119.942C87.4951 120.262 88.0342 120.422 88.7061 120.422C89.3779 120.422 89.9209 120.262 90.335 119.942C90.749 119.621 90.9561 119.188 90.9561 118.641C90.9561 118.094 90.749 117.66 90.335 117.34C89.9209 117.02 89.3779 116.86 88.7061 116.86ZM94.4951 123.352C96.0029 123.352 97.2998 123.5 98.3857 123.797C99.4717 124.094 100.304 124.531 100.882 125.11C101.46 125.68 101.753 126.367 101.761 127.172C101.753 127.961 101.456 128.637 100.87 129.199C100.292 129.77 99.46 130.203 98.374 130.5C97.2881 130.797 95.9951 130.946 94.4951 130.946C92.9951 130.946 91.6982 130.797 90.6045 130.5C89.5186 130.203 88.6826 129.77 88.0967 129.199C87.5186 128.637 87.2295 127.961 87.2295 127.172C87.2295 126.367 87.5186 125.68 88.0967 125.11C88.6826 124.531 89.5186 124.094 90.6045 123.797C91.6904 123.5 92.9873 123.352 94.4951 123.352ZM94.4951 125.344C92.9717 125.328 91.8115 125.477 91.0146 125.789C90.2256 126.094 89.8311 126.555 89.8311 127.172C89.8311 127.758 90.2295 128.203 91.0264 128.508C91.8232 128.805 92.9795 128.953 94.4951 128.953C96.0029 128.953 97.1514 128.805 97.9404 128.508C98.7373 128.203 99.1357 127.758 99.1357 127.172C99.1357 126.555 98.7373 126.094 97.9404 125.789C97.1514 125.477 96.0029 125.328 94.4951 125.344ZM121.894 130.992H119.269V109.781H121.894V130.992ZM110.479 111.328C111.542 111.328 112.487 111.637 113.315 112.254C114.151 112.864 114.808 113.735 115.284 114.867C115.761 115.992 116.003 117.305 116.011 118.805C116.003 120.313 115.761 121.633 115.284 122.766C114.815 123.899 114.163 124.774 113.327 125.391C112.491 126 111.542 126.305 110.479 126.305C109.409 126.305 108.456 126 107.62 125.391C106.784 124.774 106.128 123.899 105.651 122.766C105.183 121.633 104.948 120.313 104.948 118.805C104.948 117.305 105.183 115.992 105.651 114.867C106.128 113.735 106.784 112.864 107.62 112.254C108.456 111.637 109.409 111.328 110.479 111.328ZM110.479 113.672C109.878 113.672 109.347 113.875 108.886 114.281C108.433 114.688 108.081 115.278 107.831 116.051C107.581 116.824 107.456 117.742 107.456 118.805C107.456 119.875 107.581 120.797 107.831 121.571C108.081 122.344 108.433 122.938 108.886 123.352C109.347 123.758 109.878 123.961 110.479 123.961C111.073 123.961 111.597 123.758 112.05 123.352C112.503 122.938 112.854 122.344 113.104 121.571C113.354 120.797 113.479 119.875 113.479 118.805C113.479 117.742 113.354 116.828 113.104 116.063C112.854 115.289 112.503 114.699 112.05 114.293C111.597 113.879 111.073 113.672 110.479 113.672ZM141.722 114.867H144.698V117.024H141.722V122.531H139.12V109.805H141.722V114.867ZM135.487 117.188H128.433V119.414C130.331 119.399 131.948 119.348 133.284 119.262C134.628 119.168 135.995 119.008 137.386 118.781L137.667 120.867C136.222 121.117 134.792 121.293 133.378 121.395C131.972 121.496 130.315 121.547 128.409 121.547H127.565H125.831V115.219H132.933V113.156H125.808V111.094H135.487V117.188ZM134.808 123C136.261 123.008 137.519 123.172 138.581 123.492C139.651 123.813 140.476 124.274 141.054 124.875C141.632 125.469 141.925 126.18 141.933 127.008C141.925 127.828 141.632 128.531 141.054 129.117C140.476 129.703 139.651 130.149 138.581 130.453C137.519 130.766 136.261 130.922 134.808 130.922C133.331 130.922 132.054 130.766 130.976 130.453C129.897 130.149 129.069 129.703 128.491 129.117C127.921 128.531 127.636 127.828 127.636 127.008C127.636 126.18 127.921 125.469 128.491 124.875C129.069 124.274 129.897 123.813 130.976 123.492C132.054 123.172 133.331 123.008 134.808 123ZM134.808 125.039C133.323 125.039 132.179 125.211 131.374 125.555C130.577 125.891 130.183 126.375 130.19 127.008C130.183 127.641 130.577 128.125 131.374 128.461C132.179 128.789 133.323 128.953 134.808 128.953C136.276 128.953 137.401 128.789 138.183 128.461C138.964 128.125 139.354 127.641 139.354 127.008C139.354 126.375 138.96 125.891 138.171 125.555C137.39 125.211 136.269 125.039 134.808 125.039ZM168.675 113.578V114.117C168.667 115.242 168.644 116.223 168.604 117.059C168.565 117.895 168.479 118.871 168.347 119.989C168.214 121.098 168.011 122.297 167.737 123.586L165.183 123.328C165.511 121.797 165.753 120.274 165.909 118.758L153.417 119.461L153.042 117.235L166.05 116.766C166.081 116.055 166.104 115.055 166.12 113.766H153.698V111.656H168.675V113.578ZM170.761 128.367H151.448V126.211H158.573V120.985H161.151V126.211H170.761V128.367ZM183.136 112.688C183.136 113.774 183.464 114.832 184.12 115.864C184.784 116.895 185.698 117.785 186.862 118.535C188.026 119.278 189.331 119.774 190.776 120.024L189.604 122.203C187.831 121.828 186.253 121.137 184.87 120.129C183.495 119.114 182.464 117.891 181.776 116.461C181.073 117.883 180.03 119.102 178.647 120.117C177.265 121.125 175.69 121.821 173.925 122.203L172.776 120.024C174.206 119.766 175.495 119.266 176.644 118.524C177.8 117.774 178.706 116.883 179.362 115.852C180.026 114.821 180.362 113.766 180.37 112.688V111.117H183.136V112.688ZM191.55 128.274H172.19V126.117H191.55V128.274ZM209.386 121.617H199.354V111.61H209.386V121.617ZM201.909 119.555H206.831V113.696H201.909V119.555ZM215.339 115.992H218.292V118.172H215.339V125.25H212.737V109.781H215.339V115.992ZM216.183 130.547H201.769V123.75H204.37V128.438H216.183V130.547ZM238.706 120.328H219.37V118.266H238.706V120.328ZM236.409 116.906H221.831V110.321H236.222V112.406H224.433V114.844H236.409V116.906ZM236.269 127.102H224.222V128.719H236.854V130.758H221.667V125.227H233.714V123.75H221.644V121.781H236.269V127.102ZM257.854 130.992H255.253V119.719H251.62V117.586H255.253V109.781H257.854V130.992ZM250.401 119.391H243.464V123.844C245.206 123.836 246.729 123.789 248.034 123.703C249.347 123.617 250.667 123.453 251.995 123.211L252.206 125.344C250.714 125.61 249.233 125.789 247.765 125.883C246.296 125.977 244.565 126.024 242.573 126.024H240.886V117.281H247.847V113.742H240.815V111.633H250.401V119.391ZM277.448 118.055H280.589V120.235H277.448V130.922H274.847V109.781H277.448V118.055ZM271.847 111.985C271.847 118.938 268.636 123.992 262.214 127.149L260.737 125.133C263.315 123.852 265.304 122.301 266.702 120.481C268.108 118.66 268.944 116.547 269.21 114.141H261.886V111.985H271.847ZM300.956 128.391H281.597V126.258H286.073V120.903C285.214 120.403 284.546 119.781 284.069 119.039C283.601 118.297 283.37 117.461 283.378 116.531C283.37 115.43 283.702 114.453 284.374 113.602C285.046 112.75 285.979 112.094 287.175 111.633C288.37 111.164 289.722 110.93 291.229 110.93C292.745 110.93 294.101 111.164 295.296 111.633C296.499 112.094 297.437 112.75 298.108 113.602C298.788 114.446 299.128 115.422 299.128 116.531C299.128 117.438 298.897 118.262 298.437 119.004C297.983 119.739 297.339 120.352 296.503 120.844V126.258H300.956V128.391ZM291.229 112.992C290.175 112.992 289.245 113.137 288.44 113.426C287.644 113.707 287.022 114.114 286.577 114.645C286.14 115.176 285.925 115.805 285.933 116.531C285.925 117.25 286.14 117.875 286.577 118.406C287.022 118.938 287.647 119.348 288.452 119.637C289.257 119.926 290.183 120.071 291.229 120.071C292.276 120.071 293.202 119.926 294.007 119.637C294.819 119.348 295.448 118.938 295.894 118.406C296.347 117.875 296.573 117.25 296.573 116.531C296.573 115.813 296.347 115.188 295.894 114.656C295.448 114.117 294.823 113.707 294.019 113.426C293.214 113.137 292.284 112.992 291.229 112.992ZM293.854 126.258V121.84C293.026 122.02 292.151 122.11 291.229 122.11C290.347 122.11 289.487 122.024 288.651 121.852V126.258H293.854ZM306.44 123.891H303.792L303.511 111.914H306.698L306.44 123.891ZM305.128 129.071C304.8 129.071 304.495 128.989 304.214 128.824C303.933 128.66 303.71 128.438 303.546 128.156C303.382 127.875 303.3 127.571 303.3 127.242C303.3 126.922 303.382 126.625 303.546 126.352C303.71 126.071 303.933 125.848 304.214 125.684C304.495 125.52 304.8 125.438 305.128 125.438C305.44 125.438 305.733 125.52 306.007 125.684C306.288 125.848 306.511 126.071 306.675 126.352C306.847 126.625 306.933 126.922 306.933 127.242C306.933 127.571 306.847 127.875 306.675 128.156C306.511 128.438 306.288 128.66 306.007 128.824C305.733 128.989 305.44 129.071 305.128 129.071Z" fill="#7B7B7B"/>
<path d="M104.218 79.5784V80.1174C104.21 81.2424 104.187 82.2229 104.147 83.0588C104.108 83.8948 104.022 84.8713 103.89 85.9885C103.757 87.0979 103.554 88.2971 103.28 89.5862L100.726 89.3284C101.054 87.7971 101.296 86.2737 101.452 84.7581L88.96 85.4612L88.585 83.2346L101.593 82.7659C101.624 82.0549 101.647 81.0549 101.663 79.7659H89.2412V77.6565H104.218V79.5784ZM106.304 94.3674H86.9912V92.2112H94.1162V86.9846H96.6943V92.2112H106.304V94.3674ZM118.679 78.6877C118.679 79.7737 119.007 80.8323 119.663 81.8635C120.327 82.8948 121.241 83.7854 122.405 84.5354C123.569 85.2776 124.874 85.7737 126.319 86.0237L125.147 88.2034C123.374 87.8284 121.796 87.137 120.413 86.1292C119.038 85.1135 118.007 83.8909 117.319 82.4612C116.616 83.8831 115.573 85.1018 114.19 86.1174C112.808 87.1252 111.233 87.8206 109.468 88.2034L108.319 86.0237C109.749 85.7659 111.038 85.2659 112.187 84.5237C113.343 83.7737 114.249 82.8831 114.905 81.8518C115.569 80.8206 115.905 79.7659 115.913 78.6877V77.1174H118.679V78.6877ZM127.093 94.2737H107.733V92.1174H127.093V94.2737ZM145.069 84.0549H148.21V86.2346H145.069V96.9221H142.468V75.7815H145.069V84.0549ZM139.468 77.9846C139.468 84.9377 136.257 89.9924 129.835 93.1487L128.358 91.1331C130.937 89.8518 132.925 88.301 134.323 86.4807C135.729 84.6604 136.565 82.5471 136.831 80.1409H129.507V77.9846H139.468ZM165.577 79.3206H158.546V81.3596H164.944V83.3752H158.546V85.6018C160.382 85.594 161.87 85.5588 163.011 85.4963C164.159 85.426 165.312 85.2893 166.468 85.0862L166.679 87.1956C165.397 87.4143 164.108 87.5588 162.812 87.6292C161.522 87.6995 159.772 87.7424 157.562 87.7581H155.944V77.1877H165.577V79.3206ZM172.655 88.6956H170.054V83.3284H166.257V81.1721H170.054V75.7815H172.655V88.6956ZM165.483 89.0471C166.983 89.0471 168.276 89.2034 169.362 89.5159C170.448 89.8206 171.28 90.2698 171.858 90.8635C172.437 91.4495 172.726 92.1565 172.726 92.9846C172.726 93.8127 172.437 94.5237 171.858 95.1174C171.28 95.7112 170.448 96.1643 169.362 96.4768C168.276 96.7893 166.983 96.9456 165.483 96.9456C163.991 96.9456 162.702 96.7893 161.616 96.4768C160.538 96.1643 159.71 95.7112 159.132 95.1174C158.562 94.5237 158.28 93.8127 158.288 92.9846C158.28 92.1565 158.562 91.4495 159.132 90.8635C159.71 90.2698 160.538 89.8206 161.616 89.5159C162.694 89.2034 163.983 89.0471 165.483 89.0471ZM165.483 91.0627C164.007 91.0627 162.866 91.2307 162.062 91.5667C161.265 91.8948 160.866 92.3674 160.866 92.9846C160.866 93.6174 161.265 94.1018 162.062 94.4377C162.858 94.7659 163.999 94.9299 165.483 94.9299C166.983 94.9299 168.132 94.7659 168.929 94.4377C169.726 94.1018 170.124 93.6174 170.124 92.9846C170.124 92.3596 169.726 91.8831 168.929 91.5549C168.132 91.2268 166.983 91.0627 165.483 91.0627ZM177.202 85.7659C177.585 85.344 178.019 85.0237 178.503 84.8049C178.987 84.5862 179.499 84.4768 180.038 84.4768C180.452 84.4768 180.854 84.5315 181.245 84.6409C181.636 84.7424 182.132 84.9065 182.733 85.1331C183.312 85.3518 183.796 85.5159 184.187 85.6252C184.585 85.7346 184.991 85.7893 185.405 85.7893C186.499 85.7893 187.421 85.344 188.171 84.4534V87.0081C187.788 87.4377 187.354 87.762 186.87 87.9807C186.394 88.1917 185.882 88.2971 185.335 88.2971C184.921 88.2971 184.511 88.2424 184.104 88.1331C183.698 88.0159 183.21 87.8518 182.64 87.6409C182.069 87.4299 181.581 87.2698 181.175 87.1604C180.776 87.0432 180.374 86.9846 179.968 86.9846C178.874 86.9846 177.952 87.4299 177.202 88.3206V85.7659ZM208.749 96.9924H206.124V75.7815H208.749V96.9924ZM194.851 82.8127H199.983V77.5159H202.562V92.0002H192.249V77.5159H194.851V82.8127ZM199.983 89.8674V84.8518H194.851V89.8674H199.983ZM219.624 89.5159C219.608 90.4534 219.819 91.3518 220.257 92.2112C220.702 93.0627 221.362 93.7776 222.237 94.3557C223.104 93.7463 223.765 93.0042 224.218 92.1292C224.671 91.2463 224.905 90.3752 224.921 89.5159V88.5315H227.476V89.5159C227.476 90.2737 227.624 90.9963 227.921 91.6838C228.226 92.3635 228.687 92.9729 229.304 93.512C229.921 94.0432 230.687 94.4534 231.601 94.7424L230.288 96.6877C229.288 96.3362 228.44 95.8362 227.745 95.1877C227.058 94.5393 226.526 93.7776 226.151 92.9026C225.784 93.7854 225.272 94.5706 224.616 95.2581C223.968 95.9534 223.179 96.4846 222.249 96.8518C221.304 96.5002 220.503 95.9885 219.847 95.3167C219.198 94.6448 218.694 93.8635 218.335 92.9729C217.952 93.8088 217.417 94.5471 216.729 95.1877C216.05 95.8284 215.233 96.3284 214.28 96.6877L213.015 94.7424C213.897 94.4377 214.644 94.012 215.253 93.4651C215.862 92.9182 216.319 92.3049 216.624 91.6252C216.929 90.9377 217.085 90.2346 217.093 89.5159V88.5315H219.624V89.5159ZM217.749 76.9065C218.64 76.9065 219.464 77.0706 220.222 77.3987C220.987 77.7268 221.624 78.1917 222.132 78.7932C222.647 79.387 222.995 80.0706 223.175 80.844H227.007V75.7815H229.608V87.7346H227.007V82.9534H223.198C223.034 83.7502 222.694 84.4534 222.179 85.0627C221.671 85.6721 221.03 86.1448 220.257 86.4807C219.491 86.8167 218.655 86.9846 217.749 86.9846C216.687 86.9846 215.729 86.7698 214.878 86.3401C214.026 85.9104 213.358 85.3127 212.874 84.5471C212.39 83.7815 212.147 82.9143 212.147 81.9456C212.147 80.9846 212.39 80.1213 212.874 79.3557C213.358 78.5901 214.026 77.9924 214.878 77.5627C215.737 77.1252 216.694 76.9065 217.749 76.9065ZM217.749 79.0862C217.155 79.0862 216.624 79.2073 216.155 79.4495C215.687 79.6838 215.319 80.0159 215.054 80.4456C214.788 80.8752 214.655 81.3752 214.655 81.9456C214.655 82.5081 214.788 83.0081 215.054 83.4456C215.319 83.8831 215.687 84.2229 216.155 84.4651C216.632 84.7073 217.163 84.8284 217.749 84.8284C218.327 84.8284 218.847 84.7073 219.308 84.4651C219.769 84.2229 220.132 83.8831 220.397 83.4456C220.663 83.0081 220.796 82.5081 220.796 81.9456C220.796 81.3752 220.663 80.8752 220.397 80.4456C220.132 80.0159 219.769 79.6838 219.308 79.4495C218.847 79.2073 218.327 79.0862 217.749 79.0862ZM238.397 77.3284C239.351 77.3284 240.21 77.5823 240.976 78.0901C241.741 78.5979 242.366 79.3245 242.851 80.2698C243.335 81.2073 243.636 82.3127 243.753 83.5862H247.796V75.7815H250.374V96.9924H247.796V85.6956H243.788C243.694 87.0393 243.409 88.2112 242.933 89.2112C242.456 90.2034 241.827 90.969 241.046 91.5081C240.265 92.0393 239.382 92.3049 238.397 92.3049C237.335 92.3049 236.394 92.0002 235.573 91.3909C234.753 90.7815 234.112 89.9104 233.651 88.7776C233.19 87.6448 232.96 86.3206 232.96 84.8049C232.96 83.3049 233.19 81.9924 233.651 80.8674C234.112 79.7346 234.753 78.8635 235.573 78.2542C236.401 77.637 237.343 77.3284 238.397 77.3284ZM238.397 79.6721C237.812 79.6721 237.296 79.8792 236.851 80.2932C236.405 80.6995 236.062 81.2893 235.819 82.0627C235.577 82.8284 235.46 83.7424 235.468 84.8049C235.46 85.8752 235.577 86.7971 235.819 87.5706C236.062 88.344 236.405 88.9377 236.851 89.3518C237.296 89.7581 237.812 89.9612 238.397 89.9612C238.983 89.9612 239.495 89.7581 239.933 89.3518C240.378 88.9377 240.722 88.344 240.964 87.5706C241.214 86.7971 241.343 85.8752 241.351 84.8049C241.343 83.7424 241.214 82.8245 240.964 82.051C240.722 81.2776 240.378 80.6877 239.933 80.2815C239.495 79.8752 238.983 79.6721 238.397 79.6721ZM272.71 94.3909H253.351V92.2581H257.827V86.9026C256.968 86.4026 256.3 85.7815 255.823 85.0393C255.354 84.2971 255.124 83.4612 255.132 82.5315C255.124 81.4299 255.456 80.4534 256.128 79.6018C256.8 78.7502 257.733 78.094 258.929 77.6331C260.124 77.1643 261.476 76.9299 262.983 76.9299C264.499 76.9299 265.854 77.1643 267.05 77.6331C268.253 78.094 269.19 78.7502 269.862 79.6018C270.542 80.4456 270.882 81.4221 270.882 82.5315C270.882 83.4377 270.651 84.262 270.19 85.0042C269.737 85.7385 269.093 86.3518 268.257 86.844V92.2581H272.71V94.3909ZM262.983 78.9924C261.929 78.9924 260.999 79.137 260.194 79.426C259.397 79.7073 258.776 80.1135 258.331 80.6448C257.894 81.176 257.679 81.8049 257.687 82.5315C257.679 83.2502 257.894 83.8752 258.331 84.4065C258.776 84.9377 259.401 85.3479 260.206 85.637C261.011 85.926 261.937 86.0706 262.983 86.0706C264.03 86.0706 264.956 85.926 265.761 85.637C266.573 85.3479 267.202 84.9377 267.647 84.4065C268.101 83.8752 268.327 83.2502 268.327 82.5315C268.327 81.8127 268.101 81.1877 267.647 80.6565C267.202 80.1174 266.577 79.7073 265.772 79.426C264.968 79.137 264.038 78.9924 262.983 78.9924ZM265.608 92.2581V87.8401C264.78 88.0198 263.905 88.1096 262.983 88.1096C262.101 88.1096 261.241 88.0237 260.405 87.8518V92.2581H265.608Z" fill="#7B7B7B"/>
</g>
<defs>
<filter id="filter0_d_2103_30911" x="0.838867" y="0.883057" width="375" height="269" filterUnits="userSpaceOnUse" color-interpolation-filters="sRGB">
<feFlood flood-opacity="0" result="BackgroundImageFix"/>
<feColorMatrix in="SourceAlpha" type="matrix" values="0 0 0 0 0 0 0 0 0 0 0 0 0 0 0 0 0 0 127 0" result="hardAlpha"/>
<feOffset/>
<feGaussianBlur stdDeviation="5"/>
<feComposite in2="hardAlpha" operator="out"/>
<feColorMatrix type="matrix" values="0 0 0 0 0 0 0 0 0 0 0 0 0 0 0 0 0 0 0.06 0"/>
<feBlend mode="normal" in2="BackgroundImageFix" result="effect1_dropShadow_2103_30911"/>
<feBlend mode="normal" in="SourceGraphic" in2="effect1_dropShadow_2103_30911" result="shape"/>
</filter>
</defs>
</svg>
