<svg width="50" height="46" viewBox="0 0 50 46" fill="none" xmlns="http://www.w3.org/2000/svg">
<path d="M7.82092 32.0496C7.67261 32.0188 7.51279 32.002 7.3506 32.0002C7.18841 31.9983 7.02703 32.0115 6.87569 32.0389C6.72436 32.0662 6.58603 32.1073 6.46863 32.1597C6.35122 32.2122 6.25704 32.2749 6.19147 32.3444L0.105699 38.7602C-0.0268955 38.9005 -0.0350576 39.0597 0.0830083 39.2027C0.201074 39.3458 0.435697 39.4611 0.735261 39.5232C1.03483 39.5852 1.37479 39.5891 1.68037 39.5338C1.98596 39.4785 2.23212 39.3686 2.36472 39.2284L8.46283 32.8068C8.59101 32.6665 8.59545 32.5081 8.4752 32.3663C8.35494 32.2244 8.11974 32.1106 7.82092 32.0496ZM16.9681 32.0496C16.8198 32.0188 16.66 32.002 16.4978 32.0002C16.3356 31.9983 16.1742 32.0115 16.0229 32.0389C15.8715 32.0662 15.7332 32.1073 15.6158 32.1597C15.4984 32.2122 15.4042 32.2749 15.3386 32.3444L3.17944 45.1876C3.11379 45.257 3.07799 45.3318 3.0741 45.4078C3.07021 45.4837 3.09829 45.5592 3.15675 45.6301C3.21521 45.7009 3.30291 45.7657 3.41482 45.8207C3.52673 45.8757 3.66068 45.9198 3.80901 45.9505C3.95734 45.9813 4.11714 45.998 4.27931 45.9998C4.44147 46.0017 4.60281 45.9885 4.75412 45.9611C4.90543 45.9338 5.04374 45.8927 5.16116 45.8403C5.27858 45.7879 5.37281 45.7252 5.43846 45.6557L17.6347 32.8126C17.6993 32.7421 17.7334 32.6662 17.7348 32.5895C17.7362 32.5128 17.705 32.4367 17.6429 32.3657C17.5809 32.2947 17.4893 32.2301 17.3734 32.1759C17.2575 32.1216 17.1198 32.0787 16.9681 32.0496ZM35.2748 32.0496C35.1265 32.0188 34.9666 32.002 34.8045 32.0002C34.6423 31.9983 34.4809 32.0115 34.3296 32.0389C34.1782 32.0662 34.0399 32.1073 33.9225 32.1597C33.8051 32.2122 33.7109 32.2749 33.6453 32.3444L21.4368 45.1876C21.3711 45.257 21.3353 45.3318 21.3314 45.4078C21.3275 45.4837 21.3556 45.5592 21.4141 45.6301C21.4725 45.7009 21.5602 45.7657 21.6721 45.8207C21.784 45.8757 21.918 45.9198 22.0663 45.9505C22.2146 45.9813 22.3745 45.998 22.5366 45.9998C22.6988 46.0017 22.8601 45.9885 23.0114 45.9611C23.1627 45.9338 23.3011 45.8927 23.4185 45.8403C23.5359 45.7879 23.6301 45.7252 23.6958 45.6557L35.892 32.8126C36.0256 32.673 36.0356 32.5144 35.92 32.3714C35.8043 32.2284 35.5723 32.1127 35.2748 32.0496ZM26.1153 32.0496C25.967 32.0188 25.8071 32.002 25.6449 32.0002C25.4827 31.9983 25.3214 32.0115 25.17 32.0389C25.0187 32.0662 24.8804 32.1073 24.763 32.1597C24.6456 32.2122 24.5514 32.2749 24.4858 32.3444L18.3877 38.7602C18.2551 38.9005 18.2469 39.0597 18.365 39.2027C18.4831 39.3458 18.7177 39.4611 19.0173 39.5232C19.3168 39.5852 19.6568 39.5891 19.9624 39.5338C20.268 39.4785 20.5141 39.3686 20.6467 39.2284L26.7448 32.8068C26.8738 32.6672 26.88 32.5094 26.7621 32.3677C26.6443 32.2259 26.4119 32.1117 26.1153 32.0496Z" fill="#BFCFD7"/>
<path d="M41.7543 15.1283C41.7252 14.5593 41.6682 13.9921 41.5837 13.4291C41.0152 9.68507 39.1834 6.27541 36.4179 3.81362C33.6524 1.35183 30.1348 -0.000476737 26.4979 1.53931e-05C22.8611 0.000507523 19.3438 1.35377 16.579 3.81631C13.8141 6.27885 11.9831 9.68899 11.4155 13.4332C11.3316 13.9949 11.2749 14.5607 11.2457 15.1283C8.83091 16.0374 6.74367 17.7002 5.26818 19.8902C3.79269 22.0802 3.00068 24.691 3 27.3671C3 27.8002 3.16506 28.2155 3.45887 28.5217C3.75267 28.828 4.15116 29 4.56667 29H48.4333C48.8488 29 49.2473 28.828 49.5411 28.5217C49.8349 28.2155 50 27.8002 50 27.3671C49.9993 24.691 49.2073 22.0802 47.7318 19.8902C46.2563 17.7002 44.1691 16.0374 41.7543 15.1283Z" fill="#B2EBF2"/>
</svg>
