<svg width="36" height="32" viewBox="0 0 36 32" fill="none" xmlns="http://www.w3.org/2000/svg">
<path d="M20.7219 18.1413L23.6946 9.29181L20.4756 6.45067C19.36 5.46599 17.5443 5.53356 16.5162 6.58582L3.40215 20.0914C3.20527 20.2941 3.0959 20.5547 3.0959 20.825L3.08496 29.2817C3.08496 29.3589 3.15059 29.4168 3.23809 29.4168L15.4092 24.7041L20.7219 18.1413Z" fill="url(#paint0_linear_2024_11187)"/>
<path d="M20.7219 18.1413L23.6946 9.29181L20.4756 6.45067C19.36 5.46599 17.5443 5.53356 16.5162 6.58582L3.40215 20.0914C3.20527 20.2941 3.0959 20.5547 3.0959 20.825L3.08496 29.2817C3.08496 29.3589 3.15059 29.4168 3.23809 29.4168L15.4092 24.7041L20.7219 18.1413Z" fill="url(#paint1_linear_2024_11187)"/>
<path d="M20.7219 18.1413L23.6946 9.29181L20.4756 6.45067C19.36 5.46599 17.5443 5.53356 16.5162 6.58582L3.40215 20.0914C3.20527 20.2941 3.0959 20.5547 3.0959 20.825L3.08496 29.2817C3.08496 29.3589 3.15059 29.4168 3.23809 29.4168L15.4092 24.7041L20.7219 18.1413Z" fill="url(#paint2_radial_2024_11187)"/>
<path d="M20.7219 18.1413L23.6946 9.29181L20.4756 6.45067C19.36 5.46599 17.5443 5.53356 16.5162 6.58582L3.40215 20.0914C3.20527 20.2941 3.0959 20.5547 3.0959 20.825L3.08496 29.2817C3.08496 29.3589 3.15059 29.4168 3.23809 29.4168L15.4092 24.7041L20.7219 18.1413Z" fill="url(#paint3_linear_2024_11187)"/>
<path d="M20.7219 18.1413L23.6946 9.29181L20.4756 6.45067C19.36 5.46599 17.5443 5.53356 16.5162 6.58582L3.40215 20.0914C3.20527 20.2941 3.0959 20.5547 3.0959 20.825L3.08496 29.2817C3.08496 29.3589 3.15059 29.4168 3.23809 29.4168L15.4092 24.7041L20.7219 18.1413Z" fill="url(#paint4_linear_2024_11187)"/>
<path d="M33.7209 6.12237L30.549 3.0718C29.5537 2.11609 27.8146 2.16435 26.8959 3.17799L3.08496 29.4168H33.7209L30.549 18.6379L33.7209 11.0911V6.12237Z" fill="url(#paint5_linear_2024_11187)"/>
<path d="M33.7209 6.12237L30.549 3.0718C29.5537 2.11609 27.8146 2.16435 26.8959 3.17799L3.08496 29.4168H33.7209L30.549 18.6379L33.7209 11.0911V6.12237Z" fill="url(#paint6_linear_2024_11187)"/>
<path d="M33.7209 6.12237L30.549 3.0718C29.5537 2.11609 27.8146 2.16435 26.8959 3.17799L3.08496 29.4168H33.7209L30.549 18.6379L33.7209 11.0911V6.12237Z" fill="url(#paint7_radial_2024_11187)"/>
<path d="M33.7209 6.12237L30.549 3.0718C29.5537 2.11609 27.8146 2.16435 26.8959 3.17799L3.08496 29.4168H33.7209L30.549 18.6379L33.7209 11.0911V6.12237Z" fill="url(#paint8_radial_2024_11187)"/>
<path d="M33.7209 6.12237L30.549 3.0718C29.5537 2.11609 27.8146 2.16435 26.8959 3.17799L3.08496 29.4168H33.7209L30.549 18.6379L33.7209 11.0911V6.12237Z" fill="url(#paint9_radial_2024_11187)"/>
<path d="M33.7209 6.12237L30.549 3.0718C29.5537 2.11609 27.8146 2.16435 26.8959 3.17799L3.08496 29.4168H33.7209L30.549 18.6379L33.7209 11.0911V6.12237Z" fill="url(#paint10_linear_2024_11187)"/>
<path d="M33.7209 6.12237L30.549 3.0718C29.5537 2.11609 27.8146 2.16435 26.8959 3.17799L3.08496 29.4168H33.7209L30.549 18.6379L33.7209 11.0911V6.12237Z" fill="url(#paint11_linear_2024_11187)"/>
<path d="M33.7209 6.12237L30.549 3.0718C29.5537 2.11609 27.8146 2.16435 26.8959 3.17799L3.08496 29.4168H33.7209L30.549 18.6379L33.7209 11.0911V6.12237Z" fill="url(#paint12_linear_2024_11187)"/>
<path d="M16.7568 29.4168C17.965 29.4168 18.9443 28.5524 18.9443 27.486C18.9443 26.4197 17.965 25.5553 16.7568 25.5553C15.5487 25.5553 14.5693 26.4197 14.5693 27.486C14.5693 28.5524 15.5487 29.4168 16.7568 29.4168Z" fill="#786E7C"/>
<path d="M16.7568 29.4168C17.965 29.4168 18.9443 28.5524 18.9443 27.486C18.9443 26.4197 17.965 25.5553 16.7568 25.5553C15.5487 25.5553 14.5693 26.4197 14.5693 27.486C14.5693 28.5524 15.5487 29.4168 16.7568 29.4168Z" fill="url(#paint13_linear_2024_11187)"/>
<path d="M16.7568 29.4168C17.965 29.4168 18.9443 28.5524 18.9443 27.486C18.9443 26.4197 17.965 25.5553 16.7568 25.5553C15.5487 25.5553 14.5693 26.4197 14.5693 27.486C14.5693 28.5524 15.5487 29.4168 16.7568 29.4168Z" fill="url(#paint14_radial_2024_11187)"/>
<path d="M16.7568 29.4168C17.965 29.4168 18.9443 28.5524 18.9443 27.486C18.9443 26.4197 17.965 25.5553 16.7568 25.5553C15.5487 25.5553 14.5693 26.4197 14.5693 27.486C14.5693 28.5524 15.5487 29.4168 16.7568 29.4168Z" fill="url(#paint15_radial_2024_11187)"/>
<path d="M22.7944 29.4168C24.0026 29.4168 24.9819 28.5524 24.9819 27.486C24.9819 26.4197 24.0026 25.5553 22.7944 25.5553C21.5863 25.5553 20.6069 26.4197 20.6069 27.486C20.6069 28.5524 21.5863 29.4168 22.7944 29.4168Z" fill="#6E6371"/>
<path d="M22.7944 29.4168C24.0026 29.4168 24.9819 28.5524 24.9819 27.486C24.9819 26.4197 24.0026 25.5553 22.7944 25.5553C21.5863 25.5553 20.6069 26.4197 20.6069 27.486C20.6069 28.5524 21.5863 29.4168 22.7944 29.4168Z" fill="url(#paint16_linear_2024_11187)"/>
<path d="M22.7944 29.4168C24.0026 29.4168 24.9819 28.5524 24.9819 27.486C24.9819 26.4197 24.0026 25.5553 22.7944 25.5553C21.5863 25.5553 20.6069 26.4197 20.6069 27.486C20.6069 28.5524 21.5863 29.4168 22.7944 29.4168Z" fill="url(#paint17_radial_2024_11187)"/>
<path d="M22.7944 29.4168C24.0026 29.4168 24.9819 28.5524 24.9819 27.486C24.9819 26.4197 24.0026 25.5553 22.7944 25.5553C21.5863 25.5553 20.6069 26.4197 20.6069 27.486C20.6069 28.5524 21.5863 29.4168 22.7944 29.4168Z" fill="url(#paint18_radial_2024_11187)"/>
<path d="M31.5435 27.2549C31.5332 27.3307 31.5278 27.4078 31.5278 27.486C31.5278 28.5479 32.5122 29.4167 33.7153 29.4167V27.4666L33.1941 27.2549H31.5435Z" fill="#5F5562"/>
<path d="M31.5435 27.2549C31.5332 27.3307 31.5278 27.4078 31.5278 27.486C31.5278 28.5479 32.5122 29.4167 33.7153 29.4167V27.4666L33.1941 27.2549H31.5435Z" fill="url(#paint19_linear_2024_11187)"/>
<path d="M31.5435 27.2549C31.5332 27.3307 31.5278 27.4078 31.5278 27.486C31.5278 28.5479 32.5122 29.4167 33.7153 29.4167V27.4666L33.1941 27.2549H31.5435Z" fill="url(#paint20_radial_2024_11187)"/>
<path d="M31.5435 27.2549C31.5332 27.3307 31.5278 27.4078 31.5278 27.486C31.5278 28.5479 32.5122 29.4167 33.7153 29.4167V27.4666L33.1941 27.2549H31.5435Z" fill="url(#paint21_radial_2024_11187)"/>
<path d="M22.2476 27.9687H16.7788C16.4726 27.9687 16.2319 27.7563 16.2319 27.486C16.2319 27.2157 16.4726 27.0034 16.7788 27.0034H22.2476C22.5538 27.0034 22.7944 27.2157 22.7944 27.486C22.7944 27.7467 22.5429 27.9687 22.2476 27.9687Z" fill="url(#paint22_radial_2024_11187)"/>
<path d="M12.9507 12.0883C12.9507 11.536 13.3984 11.0883 13.9507 11.0883H33.7155V13.015L31.6853 17.8429L33.7155 22.6709V27.4861H14.0444C13.4429 27.4861 12.9507 27.0516 12.9507 26.5207V12.0883Z" fill="url(#paint23_linear_2024_11187)"/>
<path d="M12.9507 12.0883C12.9507 11.536 13.3984 11.0883 13.9507 11.0883H33.7155V13.015L31.6853 17.8429L33.7155 22.6709V27.4861H14.0444C13.4429 27.4861 12.9507 27.0516 12.9507 26.5207V12.0883Z" fill="url(#paint24_linear_2024_11187)"/>
<path d="M12.9507 12.0883C12.9507 11.536 13.3984 11.0883 13.9507 11.0883H33.7155V13.015L31.6853 17.8429L33.7155 22.6709V27.4861H14.0444C13.4429 27.4861 12.9507 27.0516 12.9507 26.5207V12.0883Z" fill="url(#paint25_linear_2024_11187)"/>
<path d="M33.7155 13.0055H12.9507V13.9799L14.9908 17.8252L12.9507 21.6704V22.6592H33.7155V21.6704L32.6999 17.8252L33.7155 13.9799V13.0055Z" fill="url(#paint26_linear_2024_11187)"/>
<path d="M33.7155 13.0055H12.9507V13.9799L14.9908 17.8252L12.9507 21.6704V22.6592H33.7155V21.6704L32.6999 17.8252L33.7155 13.9799V13.0055Z" fill="url(#paint27_linear_2024_11187)"/>
<path d="M15.1382 21.6939H12.9507L12.9616 13.9709H15.1491C15.7507 13.9709 16.2429 14.4053 16.2429 14.9363L16.2319 20.7285C16.2319 21.2594 15.7397 21.6939 15.1382 21.6939Z" fill="url(#paint28_linear_2024_11187)"/>
<path d="M15.1382 21.6939H12.9507L12.9616 13.9709H15.1491C15.7507 13.9709 16.2429 14.4053 16.2429 14.9363L16.2319 20.7285C16.2319 21.2594 15.7397 21.6939 15.1382 21.6939Z" fill="url(#paint29_linear_2024_11187)"/>
<path d="M15.1382 21.6939H12.9507L12.9616 13.9709H15.1491C15.7507 13.9709 16.2429 14.4053 16.2429 14.9363L16.2319 20.7285C16.2319 21.2594 15.7397 21.6939 15.1382 21.6939Z" fill="url(#paint30_linear_2024_11187)"/>
<path d="M21.6788 21.6939H19.5132C18.9116 21.6939 18.4194 21.2594 18.4194 20.7285L18.4304 14.9363C18.4304 14.4053 18.9226 13.9709 19.5241 13.9709H21.6897C22.2913 13.9709 22.7835 14.4053 22.7835 14.9363L22.7726 20.7285C22.7726 21.2594 22.2804 21.6939 21.6788 21.6939Z" fill="url(#paint31_linear_2024_11187)"/>
<path d="M21.6788 21.6939H19.5132C18.9116 21.6939 18.4194 21.2594 18.4194 20.7285L18.4304 14.9363C18.4304 14.4053 18.9226 13.9709 19.5241 13.9709H21.6897C22.2913 13.9709 22.7835 14.4053 22.7835 14.9363L22.7726 20.7285C22.7726 21.2594 22.2804 21.6939 21.6788 21.6939Z" fill="url(#paint32_radial_2024_11187)"/>
<path d="M21.6788 21.6939H19.5132C18.9116 21.6939 18.4194 21.2594 18.4194 20.7285L18.4304 14.9363C18.4304 14.4053 18.9226 13.9709 19.5241 13.9709H21.6897C22.2913 13.9709 22.7835 14.4053 22.7835 14.9363L22.7726 20.7285C22.7726 21.2594 22.2804 21.6939 21.6788 21.6939Z" fill="url(#paint33_linear_2024_11187)"/>
<path d="M21.6788 21.6939H19.5132C18.9116 21.6939 18.4194 21.2594 18.4194 20.7285L18.4304 14.9363C18.4304 14.4053 18.9226 13.9709 19.5241 13.9709H21.6897C22.2913 13.9709 22.7835 14.4053 22.7835 14.9363L22.7726 20.7285C22.7726 21.2594 22.2804 21.6939 21.6788 21.6939Z" fill="url(#paint34_linear_2024_11187)"/>
<path d="M28.2413 21.6939H26.0757C25.4741 21.6939 24.9819 21.2594 24.9819 20.7285L24.9929 14.9363C24.9929 14.4053 25.4851 13.9709 26.0866 13.9709H28.2522C28.8538 13.9709 29.346 14.4053 29.346 14.9363L29.3351 20.7285C29.3351 21.2594 28.8429 21.6939 28.2413 21.6939Z" fill="url(#paint35_linear_2024_11187)"/>
<path d="M28.2413 21.6939H26.0757C25.4741 21.6939 24.9819 21.2594 24.9819 20.7285L24.9929 14.9363C24.9929 14.4053 25.4851 13.9709 26.0866 13.9709H28.2522C28.8538 13.9709 29.346 14.4053 29.346 14.9363L29.3351 20.7285C29.3351 21.2594 28.8429 21.6939 28.2413 21.6939Z" fill="url(#paint36_radial_2024_11187)"/>
<path d="M28.2413 21.6939H26.0757C25.4741 21.6939 24.9819 21.2594 24.9819 20.7285L24.9929 14.9363C24.9929 14.4053 25.4851 13.9709 26.0866 13.9709H28.2522C28.8538 13.9709 29.346 14.4053 29.346 14.9363L29.3351 20.7285C29.3351 21.2594 28.8429 21.6939 28.2413 21.6939Z" fill="url(#paint37_linear_2024_11187)"/>
<path d="M28.2413 21.6939H26.0757C25.4741 21.6939 24.9819 21.2594 24.9819 20.7285L24.9929 14.9363C24.9929 14.4053 25.4851 13.9709 26.0866 13.9709H28.2522C28.8538 13.9709 29.346 14.4053 29.346 14.9363L29.3351 20.7285C29.3351 21.2594 28.8429 21.6939 28.2413 21.6939Z" fill="url(#paint38_linear_2024_11187)"/>
<path d="M33.7101 21.6939H32.6382C32.0366 21.6939 31.5444 21.2594 31.5444 20.7285L31.5554 14.9363C31.5554 14.4053 32.0476 13.9709 32.6491 13.9709H33.721L33.7101 21.6939Z" fill="url(#paint39_linear_2024_11187)"/>
<path d="M33.7101 21.6939H32.6382C32.0366 21.6939 31.5444 21.2594 31.5444 20.7285L31.5554 14.9363C31.5554 14.4053 32.0476 13.9709 32.6491 13.9709H33.721L33.7101 21.6939Z" fill="url(#paint40_radial_2024_11187)"/>
<path d="M33.7101 21.6939H32.6382C32.0366 21.6939 31.5444 21.2594 31.5444 20.7285L31.5554 14.9363C31.5554 14.4053 32.0476 13.9709 32.6491 13.9709H33.7155L33.7101 21.6939Z" fill="url(#paint41_radial_2024_11187)"/>
<path d="M33.7101 21.6939H32.6382C32.0366 21.6939 31.5444 21.2594 31.5444 20.7285L31.5554 14.9363C31.5554 14.4053 32.0476 13.9709 32.6491 13.9709H33.7155L33.7101 21.6939Z" fill="url(#paint42_linear_2024_11187)"/>
<path d="M33.7101 21.6939H32.6382C32.0366 21.6939 31.5444 21.2594 31.5444 20.7285L31.5554 14.9363C31.5554 14.4053 32.0476 13.9709 32.6491 13.9709H33.7155L33.7101 21.6939Z" fill="url(#paint43_linear_2024_11187)"/>
<path d="M15.6738 24.5899H14.5801C14.2738 24.5899 14.0332 24.3776 14.0332 24.1073C14.0332 23.837 14.2738 23.6246 14.5801 23.6246H15.6738C15.9801 23.6246 16.2207 23.837 16.2207 24.1073C16.2207 24.3776 15.9691 24.5899 15.6738 24.5899Z" fill="url(#paint44_radial_2024_11187)"/>
<path d="M15.6738 24.5899H14.5801C14.2738 24.5899 14.0332 24.3776 14.0332 24.1073C14.0332 23.837 14.2738 23.6246 14.5801 23.6246H15.6738C15.9801 23.6246 16.2207 23.837 16.2207 24.1073C16.2207 24.3776 15.9691 24.5899 15.6738 24.5899Z" fill="url(#paint45_radial_2024_11187)"/>
<defs>
<linearGradient id="paint0_linear_2024_11187" x1="7.24309" y1="22.91" x2="20.7816" y2="5.76657" gradientUnits="userSpaceOnUse">
<stop stop-color="#37806E"/>
<stop offset="1" stop-color="#398869"/>
</linearGradient>
<linearGradient id="paint1_linear_2024_11187" x1="22.3712" y1="7.52353" x2="21.3907" y2="8.7523" gradientUnits="userSpaceOnUse">
<stop stop-color="#59A083"/>
<stop offset="1" stop-color="#59A083" stop-opacity="0"/>
</linearGradient>
<radialGradient id="paint2_radial_2024_11187" cx="0" cy="0" r="1" gradientUnits="userSpaceOnUse" gradientTransform="translate(14.0121 18.4829) rotate(75.8681) scale(10.0051 4.568)">
<stop offset="0.283735" stop-color="#205845"/>
<stop offset="1" stop-color="#205845" stop-opacity="0"/>
</radialGradient>
<linearGradient id="paint3_linear_2024_11187" x1="10.3988" y1="13.1826" x2="11.0349" y2="13.8003" gradientUnits="userSpaceOnUse">
<stop stop-color="#407561"/>
<stop offset="1" stop-color="#407561" stop-opacity="0"/>
</linearGradient>
<linearGradient id="paint4_linear_2024_11187" x1="19.4064" y1="11.8511" x2="18.8793" y2="11.3656" gradientUnits="userSpaceOnUse">
<stop offset="0.0985043" stop-color="#1D543F"/>
<stop offset="1" stop-color="#1D543F" stop-opacity="0"/>
</linearGradient>
<linearGradient id="paint5_linear_2024_11187" x1="19.8964" y1="12.5905" x2="29.7272" y2="20.5609" gradientUnits="userSpaceOnUse">
<stop stop-color="#52DB8B"/>
<stop offset="1" stop-color="#4ECE7F"/>
</linearGradient>
<linearGradient id="paint6_linear_2024_11187" x1="20.885" y1="31.524" x2="20.885" y2="16.4295" gradientUnits="userSpaceOnUse">
<stop stop-color="#39BE73"/>
<stop offset="1" stop-color="#39BE73" stop-opacity="0"/>
</linearGradient>
<radialGradient id="paint7_radial_2024_11187" cx="0" cy="0" r="1" gradientUnits="userSpaceOnUse" gradientTransform="translate(16.2154 21.2105) rotate(37.1088) scale(4.80021 33.7063)">
<stop stop-color="#35A465"/>
<stop offset="0.85182" stop-color="#277E4D" stop-opacity="0"/>
</radialGradient>
<radialGradient id="paint8_radial_2024_11187" cx="0" cy="0" r="1" gradientUnits="userSpaceOnUse" gradientTransform="translate(28.7936 7.69535) rotate(36.7537) scale(8.87324 17.2543)">
<stop stop-color="#51D888"/>
<stop offset="0.805882" stop-color="#51D888" stop-opacity="0"/>
</radialGradient>
<radialGradient id="paint9_radial_2024_11187" cx="0" cy="0" r="1" gradientUnits="userSpaceOnUse" gradientTransform="translate(25.5123 27.0028) rotate(-90) scale(3.86148 17.3633)">
<stop stop-color="#35A465"/>
<stop offset="0.6875" stop-color="#277E4D" stop-opacity="0"/>
</radialGradient>
<linearGradient id="paint10_linear_2024_11187" x1="12.9342" y1="29.4162" x2="12.9342" y2="25.072" gradientUnits="userSpaceOnUse">
<stop stop-color="#39BE73"/>
<stop offset="0.277778" stop-color="#39BE73" stop-opacity="0"/>
</linearGradient>
<linearGradient id="paint11_linear_2024_11187" x1="32.4756" y1="4.95605" x2="31.7803" y2="5.69245" gradientUnits="userSpaceOnUse">
<stop stop-color="#66F9A1"/>
<stop offset="1" stop-color="#66F9A1" stop-opacity="0"/>
</linearGradient>
<linearGradient id="paint12_linear_2024_11187" x1="18.6673" y1="11.519" x2="19.9105" y2="12.6592" gradientUnits="userSpaceOnUse">
<stop offset="0.185976" stop-color="#56B878"/>
<stop offset="1" stop-color="#56B878" stop-opacity="0"/>
</linearGradient>
<linearGradient id="paint13_linear_2024_11187" x1="15.6631" y1="27.2285" x2="15.6631" y2="27.7715" gradientUnits="userSpaceOnUse">
<stop stop-color="#534350"/>
<stop offset="1" stop-color="#534350" stop-opacity="0"/>
</linearGradient>
<radialGradient id="paint14_radial_2024_11187" cx="0" cy="0" r="1" gradientUnits="userSpaceOnUse" gradientTransform="translate(16.7623 27.4855) rotate(180) scale(2.73438 2.41343)">
<stop offset="0.6375" stop-color="#574564" stop-opacity="0"/>
<stop offset="0.8625" stop-color="#574564"/>
</radialGradient>
<radialGradient id="paint15_radial_2024_11187" cx="0" cy="0" r="1" gradientUnits="userSpaceOnUse" gradientTransform="translate(17.3092 27.9682) rotate(-90) scale(1.44806 5.83456)">
<stop offset="0.0212495" stop-color="#574564"/>
<stop offset="0.315022" stop-color="#574564" stop-opacity="0"/>
</radialGradient>
<linearGradient id="paint16_linear_2024_11187" x1="21.7007" y1="27.2285" x2="21.7007" y2="27.7715" gradientUnits="userSpaceOnUse">
<stop stop-color="#4D3A4C"/>
<stop offset="1" stop-color="#4D3A4C" stop-opacity="0"/>
</linearGradient>
<radialGradient id="paint17_radial_2024_11187" cx="0" cy="0" r="1" gradientUnits="userSpaceOnUse" gradientTransform="translate(22.7999 27.4855) rotate(180) scale(2.73438 2.41343)">
<stop offset="0.6375" stop-color="#574564" stop-opacity="0"/>
<stop offset="0.8625" stop-color="#574564"/>
</radialGradient>
<radialGradient id="paint18_radial_2024_11187" cx="0" cy="0" r="1" gradientUnits="userSpaceOnUse" gradientTransform="translate(22.2311 27.9682) rotate(-90) scale(1.44806 5.83456)">
<stop stop-color="#574564"/>
<stop offset="0.302536" stop-color="#574564" stop-opacity="0"/>
</radialGradient>
<linearGradient id="paint19_linear_2024_11187" x1="32.0747" y1="27.2284" x2="32.0747" y2="27.7715" gradientUnits="userSpaceOnUse">
<stop stop-color="#483342"/>
<stop offset="1" stop-color="#483342" stop-opacity="0"/>
</linearGradient>
<radialGradient id="paint20_radial_2024_11187" cx="0" cy="0" r="1" gradientUnits="userSpaceOnUse" gradientTransform="translate(34.7927 26.0374) rotate(133.355) scale(3.983 8.08541)">
<stop offset="0.82481" stop-color="#574564" stop-opacity="0"/>
<stop offset="1" stop-color="#574564"/>
</radialGradient>
<radialGradient id="paint21_radial_2024_11187" cx="0" cy="0" r="1" gradientUnits="userSpaceOnUse" gradientTransform="translate(32.3399 27.9681) rotate(-90) scale(1.44806 2.91728)">
<stop stop-color="#574564"/>
<stop offset="0.302536" stop-color="#574564" stop-opacity="0"/>
</radialGradient>
<radialGradient id="paint22_radial_2024_11187" cx="0" cy="0" r="1" gradientUnits="userSpaceOnUse" gradientTransform="translate(17.1158 27.4842) scale(5.67352 0.579635)">
<stop stop-color="#CFB6D9"/>
<stop offset="1" stop-color="#A28DAD"/>
</radialGradient>
<linearGradient id="paint23_linear_2024_11187" x1="12.9455" y1="25.0707" x2="33.7268" y2="25.0707" gradientUnits="userSpaceOnUse">
<stop stop-color="#FECD5B"/>
<stop offset="1" stop-color="#FF8643"/>
</linearGradient>
<linearGradient id="paint24_linear_2024_11187" x1="12.9343" y1="12.0395" x2="27.153" y2="12.0395" gradientUnits="userSpaceOnUse">
<stop stop-color="#B9943F"/>
<stop offset="0.0935551" stop-color="#B9943F" stop-opacity="0"/>
</linearGradient>
<linearGradient id="paint25_linear_2024_11187" x1="25.5124" y1="27.4855" x2="25.5124" y2="12.5222" gradientUnits="userSpaceOnUse">
<stop stop-color="#BF7638"/>
<stop offset="0.0604837" stop-color="#BF7638" stop-opacity="0"/>
</linearGradient>
<linearGradient id="paint26_linear_2024_11187" x1="33.7319" y1="16.9378" x2="12.9507" y2="16.9378" gradientUnits="userSpaceOnUse">
<stop stop-color="#CBBED4"/>
<stop offset="1" stop-color="#DFD4E6"/>
</linearGradient>
<linearGradient id="paint27_linear_2024_11187" x1="12.8402" y1="22.6592" x2="13.8934" y2="22.6592" gradientUnits="userSpaceOnUse">
<stop stop-color="#8B8692"/>
<stop offset="1" stop-color="#8B8692" stop-opacity="0"/>
</linearGradient>
<linearGradient id="paint28_linear_2024_11187" x1="13.8872" y1="19.089" x2="16.6403" y2="19.089" gradientUnits="userSpaceOnUse">
<stop stop-color="#4ACDFE"/>
<stop offset="1" stop-color="#38A9D9"/>
</linearGradient>
<linearGradient id="paint29_linear_2024_11187" x1="16.2429" y1="17.1837" x2="15.2299" y2="17.1837" gradientUnits="userSpaceOnUse">
<stop stop-color="#339AFF"/>
<stop offset="0.207703" stop-color="#339AFF" stop-opacity="0"/>
</linearGradient>
<linearGradient id="paint30_linear_2024_11187" x1="14.5968" y1="13.9709" x2="14.5968" y2="17.1837" gradientUnits="userSpaceOnUse">
<stop stop-color="#339AFF"/>
<stop offset="0.356308" stop-color="#339AFF" stop-opacity="0"/>
</linearGradient>
<linearGradient id="paint31_linear_2024_11187" x1="21.3263" y1="13.9709" x2="21.3263" y2="21.6939" gradientUnits="userSpaceOnUse">
<stop stop-color="#40C1FF"/>
<stop offset="1" stop-color="#4FF4FF"/>
</linearGradient>
<radialGradient id="paint32_radial_2024_11187" cx="0" cy="0" r="1" gradientUnits="userSpaceOnUse" gradientTransform="translate(18.749 22.5529) rotate(-90) scale(7.80676 1.85247)">
<stop stop-color="#5AFFFF"/>
<stop offset="1" stop-color="#5AFFFF" stop-opacity="0"/>
</radialGradient>
<linearGradient id="paint33_linear_2024_11187" x1="22.7835" y1="17.1837" x2="20.0436" y2="17.1837" gradientUnits="userSpaceOnUse">
<stop stop-color="#339AFF"/>
<stop offset="0.501001" stop-color="#339AFF" stop-opacity="0"/>
</linearGradient>
<linearGradient id="paint34_linear_2024_11187" x1="20.6015" y1="13.9709" x2="20.6015" y2="17.1837" gradientUnits="userSpaceOnUse">
<stop stop-color="#339AFF"/>
<stop offset="0.356308" stop-color="#339AFF" stop-opacity="0"/>
</linearGradient>
<linearGradient id="paint35_linear_2024_11187" x1="27.8888" y1="13.9709" x2="27.8888" y2="21.6939" gradientUnits="userSpaceOnUse">
<stop stop-color="#40C1FF"/>
<stop offset="1" stop-color="#4FF4FF"/>
</linearGradient>
<radialGradient id="paint36_radial_2024_11187" cx="0" cy="0" r="1" gradientUnits="userSpaceOnUse" gradientTransform="translate(25.3115 22.5529) rotate(-90) scale(7.80676 1.85247)">
<stop stop-color="#5AFFFF"/>
<stop offset="1" stop-color="#5AFFFF" stop-opacity="0"/>
</radialGradient>
<linearGradient id="paint37_linear_2024_11187" x1="29.346" y1="17.1837" x2="26.6061" y2="17.1837" gradientUnits="userSpaceOnUse">
<stop stop-color="#339AFF"/>
<stop offset="0.501001" stop-color="#339AFF" stop-opacity="0"/>
</linearGradient>
<linearGradient id="paint38_linear_2024_11187" x1="27.164" y1="13.9709" x2="27.164" y2="17.1837" gradientUnits="userSpaceOnUse">
<stop stop-color="#339AFF"/>
<stop offset="0.356308" stop-color="#339AFF" stop-opacity="0"/>
</linearGradient>
<linearGradient id="paint39_linear_2024_11187" x1="32.9942" y1="13.9709" x2="32.9942" y2="21.6939" gradientUnits="userSpaceOnUse">
<stop stop-color="#40C1FF"/>
<stop offset="1" stop-color="#4FF4FF"/>
</linearGradient>
<radialGradient id="paint40_radial_2024_11187" cx="0" cy="0" r="1" gradientUnits="userSpaceOnUse" gradientTransform="translate(31.7088 22.5529) rotate(-90) scale(7.80676 0.923912)">
<stop stop-color="#5AFFFF"/>
<stop offset="1" stop-color="#5AFFFF" stop-opacity="0"/>
</radialGradient>
<radialGradient id="paint41_radial_2024_11187" cx="0" cy="0" r="1" gradientUnits="userSpaceOnUse" gradientTransform="translate(34.008 17.9774) rotate(180) scale(1.37526 5.97139)">
<stop offset="0.234259" stop-color="#4DD8FF"/>
<stop offset="1" stop-color="#4DD8FF" stop-opacity="0"/>
</radialGradient>
<linearGradient id="paint42_linear_2024_11187" x1="30.9811" y1="17.1837" x2="32.6218" y2="17.1837" gradientUnits="userSpaceOnUse">
<stop offset="0.1875" stop-color="#339AFF"/>
<stop offset="0.703125" stop-color="#339AFF" stop-opacity="0"/>
</linearGradient>
<linearGradient id="paint43_linear_2024_11187" x1="32.6327" y1="13.9709" x2="32.6327" y2="17.1837" gradientUnits="userSpaceOnUse">
<stop stop-color="#339AFF"/>
<stop offset="0.356308" stop-color="#339AFF" stop-opacity="0"/>
</linearGradient>
<radialGradient id="paint44_radial_2024_11187" cx="0" cy="0" r="1" gradientUnits="userSpaceOnUse" gradientTransform="translate(14.0332 24.1073) scale(1.71174 0.993795)">
<stop stop-color="#FF8437"/>
<stop offset="1" stop-color="#F6483A"/>
</radialGradient>
<radialGradient id="paint45_radial_2024_11187" cx="0" cy="0" r="1" gradientUnits="userSpaceOnUse" gradientTransform="translate(13.8855 24.1073) scale(2.33517 1.13016)">
<stop offset="0.71721" stop-color="#D4221B" stop-opacity="0"/>
<stop offset="1" stop-color="#D4221B"/>
</radialGradient>
</defs>
</svg>
